<svg width="1031" height="601" viewBox="0 0 1031 601" fill="none" xmlns="http://www.w3.org/2000/svg">
<g opacity="0.05">
<path fill-rule="evenodd" clip-rule="evenodd" d="M295.328 419.445L317.924 388.066C320.129 385.1 321.575 383.652 323.917 380.548C341.76 356.48 356.64 341.445 374.138 320.48C376.273 317.928 378.409 316.066 380.82 313.652C385.574 308.894 391.016 304.549 394.598 299.239C412.372 308.687 432.763 322.204 454.669 333.583C463.97 338.411 485.463 351.238 493.868 353.238C493.454 358.618 478.712 379.514 474.923 385.859C471.341 391.79 468.516 395.859 465.21 401.928L426.838 469.03C424.978 472.686 424.152 474.065 422.085 477.789C420.018 481.513 418.847 482.616 417.814 487.03C411.82 486.547 391.842 475.375 385.918 472.341L339.762 447.375C331.702 442.893 298.153 423.307 295.328 419.445ZM348.029 392.272V393.514C352.438 393.514 356.295 394.135 359.878 394.548C364.287 395.1 368.282 395.238 372.071 395.859C386.331 398.203 397.353 408.341 398.938 423.1L402.107 447.582L404.518 423.514C406.102 409.307 416.092 397.859 430.972 395.859L455.565 392.204L431.385 389.928C417.469 387.652 406.171 377.652 404.587 363.238L402.107 338.687C397.629 345.169 405.483 374.273 382.887 386.479C375.171 390.617 369.178 390.066 360.498 391.169C356.915 391.652 352.438 392.272 348.029 392.272Z" fill="url(#paint0_linear_77_41)"/>
<path fill-rule="evenodd" clip-rule="evenodd" d="M130.474 519.237H223.612C229.674 507.306 235.117 497.237 236.77 494.479C240.49 488.41 243.108 482.686 246.828 476.341L278.173 425.514L233.326 394.342C230.915 392.548 230.157 391.583 227.952 389.928L192.405 360.48L168.225 392.686C157.341 407.238 111.874 481.789 107.809 499.099L129.854 518.754L130.474 519.237Z" fill="url(#paint1_linear_77_41)"/>
<path fill-rule="evenodd" clip-rule="evenodd" d="M736.083 519.236C740.767 489.444 744.694 460.064 744.97 446.409C751.583 446.961 816.752 463.513 846.65 466.064L849.13 505.306C849.13 509.237 849.199 513.995 849.337 519.305H736.083V519.236Z" fill="url(#paint2_linear_77_41)"/>
<path fill-rule="evenodd" clip-rule="evenodd" d="M520.804 192.481C511.572 186.274 483.535 167.723 477.886 159.378C480.09 158.343 486.221 156.55 488.908 155.723L522.733 146.619C531.275 144.688 537.268 143.309 546.155 141.861C553.457 140.619 562.068 138.55 571.024 138.55V137.309C554.973 137.309 534.857 141.654 521.01 144.895L475.406 156.895C467.621 151.654 455.565 136.964 453.361 127.447C459.217 127.447 467.07 125.792 472.788 124.826C486.841 122.413 515.775 120.068 530.586 120.068V118.826C515.155 118.826 503.099 119.585 489.941 121.033L452.19 126.137C447.299 115.93 450.812 110.068 452.19 104.068C457.425 104.068 458.321 103.102 463.212 102.826C513.501 100.275 565.444 102.827 612.702 113.861C612.702 136.343 630.682 135.171 635.918 145.378L636.125 147.378C636.125 147.447 636.056 147.654 636.056 147.792C636.056 147.93 635.918 148.067 635.987 148.205C643.978 148.205 641.98 148.964 650.247 153.516C654.863 156.067 657.067 158.757 662.923 159.24C660.374 163.033 656.653 165.102 653.071 167.792C649.902 170.205 645.976 173.171 642.945 176.067L596.513 220.412C593.207 224.205 592.586 226.136 588.109 229.17C576.466 226.481 528.313 196.757 525.626 196.067C527.486 193.515 533.548 190.343 536.648 188.688L572.609 170.688C589.762 162.412 601.611 158.688 618.971 153.309C621.107 152.619 620.969 152.688 622.553 151.999C625.378 150.757 623.656 151.585 624.896 150.688C609.602 151.033 558.417 173.516 544.433 180.55C539.335 183.24 524.661 191.446 520.804 192.481Z" fill="url(#paint3_linear_77_41)"/>
<path fill-rule="evenodd" clip-rule="evenodd" d="M765.844 214.55C766.877 218.964 768.806 220.688 771.011 224.137L788.371 254.619C793.124 263.998 805.731 291.308 807.522 299.239C795.604 299.239 751.171 290.481 743.799 286.964C743.799 266.964 735.119 225.378 728.919 206.137C726.852 199.723 721.824 186.551 721.686 181.447C725.612 183.309 732.501 184.137 737.53 185.24C748.553 187.585 779.002 193.033 780.517 175.309C806.902 189.309 825.158 201.24 849.338 219.309L887.089 251.447C900.247 263.102 912.44 270.757 903.692 285.17C900.316 290.688 900.041 289.86 895.77 286.964C897.354 292.964 900.798 290.136 895.149 293.515C893.22 294.688 888.812 296.688 886.676 297.515C881.992 299.377 872.14 301.653 866.354 301.653C864.976 296.412 848.167 274.481 843.965 268.895C839.142 262.412 824.262 242.895 818.613 239.102C819.509 242.412 839.349 265.722 843.138 270.964L860.085 295.791C865.94 304.067 866.078 302.895 845.549 302.895L816.753 301.101C811.931 299.929 812.689 300.136 810.76 296.067C809.451 293.377 809.107 291.722 807.935 289.032C806.627 285.929 805.8 284.757 804.422 281.515C802.011 275.722 800.289 272.274 797.809 267.309C792.917 257.653 772.595 219.516 765.844 214.55Z" fill="url(#paint4_linear_77_41)"/>
<path fill-rule="evenodd" clip-rule="evenodd" d="M511.021 349.513C511.366 345.1 524.73 325.858 527.899 321.031C544.915 295.583 559.106 277.376 576.811 253.445C580.324 248.687 583.837 244.893 586.937 240.273L622.829 255.859C629.098 258.549 635.091 261.031 641.015 263.376C647.353 265.928 654.656 268.135 660.442 270.893C655.413 292.617 620.555 386.547 620.004 393.582C613.115 393.03 598.648 386.272 591.966 383.582C583.217 380.065 573.848 376.272 564.824 372.754C560.071 370.892 556.833 369.168 552.079 367.168L524.799 355.237C520.184 353.099 516.464 349.996 511.021 349.513Z" fill="url(#paint5_linear_77_41)"/>
<path fill-rule="evenodd" clip-rule="evenodd" d="M741.388 346.548V345.79L740.148 295.514C728.161 295.238 678.63 276.204 666.643 273.445L657.343 304.618C651.488 325.031 631.923 383.238 628.616 397.306C642.669 404.065 720.101 427.582 737.668 431.651C737.668 416.892 740.217 403.375 740.148 388.755C740.01 374.617 741.319 361.927 741.388 346.548ZM664.301 347.031C666.85 347.031 669.467 346.686 671.603 346.41C676.701 345.79 680.214 346.134 684.761 343.652C698.057 336.479 693.441 319.376 696.059 315.583L697.505 329.997C698.401 338.41 705.083 344.341 713.212 345.652L727.404 346.962L712.937 349.1C704.257 350.272 698.332 356.962 697.436 365.307L696.059 379.444L694.199 365.031C693.303 356.341 686.828 350.41 678.423 349.031C676.15 348.686 673.876 348.617 671.259 348.272C669.123 347.996 666.918 347.652 664.301 347.652V347.031Z" fill="url(#paint6_linear_77_41)"/>
<path fill-rule="evenodd" clip-rule="evenodd" d="M404.381 290.619C407.618 285.791 412.027 282.343 416.299 277.998L449.71 248.895C478.437 226.481 485.326 221.516 515.913 201.033C525.488 207.447 571.989 234.55 580.875 236.619C580.118 239.585 545.191 283.032 540.3 289.17C533.342 297.86 527.211 307.308 520.873 316.342C517.635 320.963 514.742 325.032 511.366 330.135C509.299 333.17 503.513 341.722 501.308 343.377C488.977 340.549 415.334 297.998 404.381 290.619Z" fill="black"/>
<path fill-rule="evenodd" clip-rule="evenodd" d="M142.188 299.239H144.668C147.079 309.584 166.024 333.583 174.98 342.48C177.46 344.893 178.631 346.066 180.973 348.756C181.111 348.962 181.386 349.238 181.524 349.445L187.586 355.652C185.588 358.618 183.66 360.066 181.455 362.962L141.43 419.789C137.917 425.72 134.541 431.031 131.304 436.617C127.859 442.617 124.897 448.686 121.177 454.755C116.975 461.72 104.85 485.306 103.059 493.03C95.2745 490.961 70.061 458.962 64.3431 449.582C52.7697 430.686 54.8364 433.858 60.2097 423.1C79.0854 384.893 96.3078 356.066 123.726 322.342C127.033 318.135 140.879 303.928 142.188 299.239Z" fill="black"/>
<path fill-rule="evenodd" clip-rule="evenodd" d="M153.209 289.377L173.187 268.895C176.7 265.998 177.803 265.516 181.109 262.067C192.269 250.619 213.901 234.619 227.059 224.688C230.021 222.481 232.088 221.24 235.05 219.24C238.425 216.964 240.148 215.378 243.592 213.102C249.31 209.24 274.11 192.964 279.415 192.482C285.546 205.24 284.581 203.654 294.639 216.481L313.722 237.861L244.763 293.929C235.808 302.894 216.243 321.86 209.698 329.998C208.252 331.791 197.161 343.791 196.058 344.549C181.385 334.756 161.132 304.481 153.209 289.377Z" fill="url(#paint7_linear_77_41)"/>
<path fill-rule="evenodd" clip-rule="evenodd" d="M329.636 234.205C337.007 224.136 407.757 186.826 428.217 178.275C434.899 175.447 439.721 173.447 446.404 170.757C452.604 168.275 460.388 165.861 465.693 163.033C470.653 170.482 502.204 192.688 511.022 197.378C507.991 201.93 486.36 214.067 481.124 217.723C461.973 231.033 435.381 251.171 417.608 266.964C414.646 269.584 413.681 270.964 410.581 273.377C405.552 277.17 401.97 282.412 397.079 285.653L329.636 234.205Z" fill="url(#paint8_linear_77_41)"/>
<path fill-rule="evenodd" clip-rule="evenodd" d="M817.304 311.445C821.575 311.445 829.015 312.342 834.251 312.894C853.057 314.894 854.642 314.066 871.175 312.687L880.131 329.445C883.369 336.066 886.4 340.686 889.5 347.031C899.833 367.859 913.473 398.686 920.913 421.1C921.947 424.341 932.556 453.72 931.316 455.789C928.973 459.927 877.375 456.548 869.866 456.203C847.34 455.099 851.955 454.548 851.06 446.824C846.857 411.307 833.561 357.1 821.024 322.342C819.646 318.066 818.406 316.204 817.304 311.445Z" fill="url(#paint9_linear_77_41)"/>
<path fill-rule="evenodd" clip-rule="evenodd" d="M951.912 519.236C950.741 512.754 949.57 506.478 948.33 500.478L941.097 468.478C949.57 468.478 960.592 465.375 967.826 463.306C975.955 461.03 983.602 456.892 990.146 452.478L1001.72 487.512C1004.89 498.754 1007.44 508.96 1009.64 519.167H951.912V519.236Z" fill="url(#paint10_linear_77_41)"/>
<path fill-rule="evenodd" clip-rule="evenodd" d="M324.744 229.308C314.962 222.757 293.124 195.239 290.437 185.171C314.548 172.412 335.077 162.895 360.429 153.447C372.209 149.102 386.193 144.343 398.249 141.033C452.741 125.93 433.658 128.688 450.054 146.895C452.741 149.861 453.567 151.516 456.185 154.274C459.216 157.447 460.87 157.516 462.041 161.929C458.321 162.205 446.747 166.826 442.752 168.412C436.069 171.102 431.247 173.171 424.565 175.929C412.096 181.171 401.142 186.343 389.293 192.136L324.744 229.308Z" fill="url(#paint11_linear_77_41)"/>
<path fill-rule="evenodd" clip-rule="evenodd" d="M874.896 312.687C889.913 309.17 895.218 309.376 906.791 301.652L929.594 332.825C943.992 352.549 980.296 419.031 985.257 440.272C971.892 449.237 954.532 454.824 937.447 456.203L893.289 345.859L874.896 312.687Z" fill="url(#paint12_linear_77_41)"/>
<path fill-rule="evenodd" clip-rule="evenodd" d="M594.308 232.963C596.099 226.274 633.093 189.86 636.262 186.688C640.051 182.895 643.289 179.102 647.491 175.86C667.124 160.688 660.58 159.309 673.945 165.516C677.32 167.102 687.24 171.378 691.098 171.653C684.278 200.964 669.329 238.825 664.162 261.17C655.827 261.032 603.264 237.722 594.308 232.963Z" fill="url(#paint13_linear_77_41)"/>
<path fill-rule="evenodd" clip-rule="evenodd" d="M669.052 263.653C673.048 255.309 692.13 181.378 692.337 172.896C695.506 173.654 697.091 174.344 699.708 175.309C701.982 176.137 704.944 176.964 707.218 177.654C721.547 181.999 718.515 177.378 724.784 199.378C726.438 205.24 727.884 210.206 729.055 215.93C733.051 235.447 738.975 265.929 738.975 285.791C728.711 284.895 675.666 267.102 669.052 263.653Z" fill="url(#paint14_linear_77_41)"/>
<path fill-rule="evenodd" clip-rule="evenodd" d="M147.078 263.653C147.078 254.412 150.109 246.136 154.793 240.688C160.649 233.791 171.327 226.205 178.078 219.791L203.154 199.516C206.392 197.102 208.596 195.723 211.834 193.516C227.472 182.895 263.363 157.93 278.243 154.482C276.452 158.137 273.628 165.723 273.628 170.412C273.628 177.516 276.659 184.826 277.003 188.826C258.265 198.757 236.083 213.791 219.067 226.55C215.898 228.895 213.625 230.274 210.456 232.688L173.118 263.998C167.124 269.929 155.964 283.17 150.798 284.549C150.178 277.791 147.078 275.17 147.078 263.653Z" fill="url(#paint15_linear_77_41)"/>
<path fill-rule="evenodd" clip-rule="evenodd" d="M288.027 152.068C290.025 146.965 289.749 147.723 295.054 145.654C309.934 139.792 327.363 131.723 343.759 126.965C366.63 120.344 415.955 105.931 439.859 105.448C434.004 116.551 436.484 119.655 438.619 128.758C407.963 135.93 368.421 145.999 340.589 158.206L287.889 181.516C287.269 174.275 285.409 173.102 285.409 163.102C285.547 159.034 286.856 155.171 288.027 152.068Z" fill="url(#paint16_linear_77_41)"/>
<path fill-rule="evenodd" clip-rule="evenodd" d="M49.0491 408.411C49.0491 391.238 52.4245 385.997 62.0001 368.618C82.5981 331.377 87.4204 322.204 114.838 285.377C119.454 279.239 124.276 274.343 128.685 268.55C130.339 266.412 141.774 253.722 143.359 252.619C140.81 263.515 138.467 256.688 138.467 277.17C138.467 289.308 145.494 291.377 138.743 299.446L104.505 341.239C91.7604 358.273 67.7181 397.652 58.6936 418.066C56.9713 421.928 56.0069 425.583 52.7002 427.996C51.1157 421.169 49.0491 417.307 49.0491 408.411Z" fill="url(#paint17_linear_77_41)"/>
<path fill-rule="evenodd" clip-rule="evenodd" d="M908.03 300.411C908.925 299.238 918.846 290.549 914.161 280.756C924.081 283.376 968.997 350.203 974.991 362.134C977.195 366.548 978.504 367.996 980.708 372.341C984.497 379.858 987.735 386.479 991.317 393.651C997.862 406.755 1002.55 419.444 991.386 434.203C989.044 437.306 990.49 436.685 986.357 437.789C985.737 430.616 973.75 406.41 970.444 399.789C954.943 368.755 940.753 343.996 919.535 315.859C915.539 310.548 911.405 305.514 908.03 300.411Z" fill="url(#paint18_linear_77_41)"/>
<path fill-rule="evenodd" clip-rule="evenodd" d="M992.559 450.064C995.797 445.168 998.001 445.444 1000.69 438.616C1003.03 432.685 1002.34 428.203 1002.34 420.616C1005.72 423.099 1007.99 431.996 1009.57 436.685C1015.15 453.375 1024.8 486.823 1031 519.167H1012.47C1009.78 507.305 1006.82 495.926 1003.79 485.443C1000.27 473.581 995.177 461.306 992.559 450.064Z" fill="url(#paint19_linear_77_41)"/>
<path fill-rule="evenodd" clip-rule="evenodd" d="M628.546 82.62V84.0682C638.949 84.0682 655.827 85.9993 666.298 87.5855C723.063 97.9992 704.325 147.24 711.903 166.55C713.763 139.102 718.103 93.7923 758.748 87.5855L796.499 82.62L759.161 78.6889C737.047 75.1717 720.514 60.1374 717.276 37.9997C715.554 26.1377 713.969 12.4137 713.969 0C709.009 3.65514 712.178 -1.24145 709.974 16.6205C707.632 35.8617 709.216 49.7927 694.543 64.5512C679.869 79.3097 648.8 82.62 628.546 82.62Z" fill="url(#paint20_linear_77_41)"/>
<path fill-rule="evenodd" clip-rule="evenodd" d="M43.6761 406.273C43.4694 414.894 42.3671 422.204 45.536 433.928C49.0494 446.755 48.7049 436.962 41.196 458.204C14.9491 532.065 13.9157 524.065 0 601.03C2.13557 563.306 13.2958 459.652 43.6761 406.273Z" fill="url(#paint21_linear_77_41)"/>
<path fill-rule="evenodd" clip-rule="evenodd" d="M95.6182 219.446H96.8584C96.8584 203.722 100.854 199.791 116.492 199.791L112.083 198.067C107.123 196.757 105.401 197.792 101.336 194.067C97.4094 190.412 96.8584 185.929 96.8584 178.895H95.6182C95.6182 186.067 94.6537 191.723 90.6581 194.826C88.3159 196.619 87.007 196.688 83.3559 197.309L75.9849 199.791C91.2783 199.86 95.6182 204.274 95.6182 219.446Z" fill="url(#paint22_linear_77_41)"/>
<path fill-rule="evenodd" clip-rule="evenodd" d="M959.905 241.583H960.87C960.87 232.273 962.178 218.48 968.654 212.549C974.785 206.963 982.088 206.066 990.148 205.721C993.455 205.583 994.832 205.79 997.657 203.79C982.914 203.79 965.83 202.204 962.661 184.963C961.903 180.756 960.801 172.549 960.801 167.928H959.836C959.836 198.066 949.09 203.859 923.049 203.859C924.909 205.101 921.259 203.79 925.53 205.17C927.941 205.928 926.976 205.583 929.663 205.721C933.934 205.928 934.692 206.135 938.205 206.618C942.063 207.17 942.821 207.238 945.714 208.549C952.052 211.514 956.736 217.652 957.976 224.618C958.803 228.204 959.905 237.652 959.905 241.583Z" fill="url(#paint23_linear_77_41)"/>
<path fill-rule="evenodd" clip-rule="evenodd" d="M487.391 519.236H574.95C575.708 517.167 576.534 515.029 577.292 512.822C581.701 501.029 585.697 489.305 590.106 476.616L609.395 422.34C610.91 417.651 614.699 408.616 615.044 404.685C608.844 404.202 565.788 386.203 557.521 382.547C548.634 378.616 539.127 375.099 530.103 370.754C524.247 367.927 507.851 359.444 502.34 359.306L450.053 450.478C448.469 453.65 447.504 455.926 445.92 458.616C442.682 464.271 440.202 469.029 437.033 475.443C434.277 480.96 429.386 486.685 428.835 493.029C434.415 495.995 439.031 498.271 445.507 500.891C452.533 503.788 468.86 511.098 487.391 519.236Z" fill="url(#paint24_linear_77_41)"/>
</g>
<defs>
<linearGradient id="paint0_linear_77_41" x1="394.579" y1="486.896" x2="394.579" y2="299.248" gradientUnits="userSpaceOnUse">
<stop stop-color="#FEF5F9"/>
<stop offset="1" stop-color="#B2BCBE"/>
</linearGradient>
<linearGradient id="paint1_linear_77_41" x1="193.003" y1="519.232" x2="193.003" y2="360.548" gradientUnits="userSpaceOnUse">
<stop stop-color="#FEF5F9"/>
<stop offset="1" stop-color="#B2BCBE"/>
</linearGradient>
<linearGradient id="paint2_linear_77_41" x1="792.768" y1="519.233" x2="792.768" y2="446.403" gradientUnits="userSpaceOnUse">
<stop stop-color="#FEF5F9"/>
<stop offset="1" stop-color="#B2BCBE"/>
</linearGradient>
<linearGradient id="paint3_linear_77_41" x1="556.295" y1="229.303" x2="556.295" y2="103.633" gradientUnits="userSpaceOnUse">
<stop stop-color="#FEF5F9"/>
<stop offset="1" stop-color="#B2BCBE"/>
</linearGradient>
<linearGradient id="paint4_linear_77_41" x1="814.211" y1="301.841" x2="814.211" y2="175.313" gradientUnits="userSpaceOnUse">
<stop stop-color="#FEF5F9"/>
<stop offset="1" stop-color="#B2BCBE"/>
</linearGradient>
<linearGradient id="paint5_linear_77_41" x1="585.737" y1="393.652" x2="585.737" y2="240.345" gradientUnits="userSpaceOnUse">
<stop stop-color="#FEF5F9"/>
<stop offset="1" stop-color="#B2BCBE"/>
</linearGradient>
<linearGradient id="paint6_linear_77_41" x1="684.992" y1="431.712" x2="684.992" y2="273.433" gradientUnits="userSpaceOnUse">
<stop stop-color="#FEF5F9"/>
<stop offset="1" stop-color="#B2BCBE"/>
</linearGradient>
<linearGradient id="paint7_linear_77_41" x1="233.443" y1="344.616" x2="233.443" y2="192.472" gradientUnits="userSpaceOnUse">
<stop stop-color="#FEF5F9"/>
<stop offset="1" stop-color="#B2BCBE"/>
</linearGradient>
<linearGradient id="paint8_linear_77_41" x1="420.312" y1="285.717" x2="420.312" y2="163.033" gradientUnits="userSpaceOnUse">
<stop stop-color="#FEF5F9"/>
<stop offset="1" stop-color="#B2BCBE"/>
</linearGradient>
<linearGradient id="paint9_linear_77_41" x1="874.441" y1="455.805" x2="874.441" y2="311.524" gradientUnits="userSpaceOnUse">
<stop stop-color="#FEF5F9"/>
<stop offset="1" stop-color="#B2BCBE"/>
</linearGradient>
<linearGradient id="paint10_linear_77_41" x1="975.353" y1="519.234" x2="975.353" y2="452.548" gradientUnits="userSpaceOnUse">
<stop stop-color="#FEF5F9"/>
<stop offset="1" stop-color="#B2BCBE"/>
</linearGradient>
<linearGradient id="paint11_linear_77_41" x1="297.865" y1="211.273" x2="453.735" y2="138.441" gradientUnits="userSpaceOnUse">
<stop stop-color="#322F52"/>
<stop offset="0.53" stop-color="#BBBCBE"/>
<stop offset="1" stop-color="#4E5068"/>
</linearGradient>
<linearGradient id="paint12_linear_77_41" x1="894.353" y1="419.689" x2="956.962" y2="344.119" gradientUnits="userSpaceOnUse">
<stop stop-color="#322F52"/>
<stop offset="0.53" stop-color="#BBBCBE"/>
<stop offset="1" stop-color="#4E5068"/>
</linearGradient>
<linearGradient id="paint13_linear_77_41" x1="642.716" y1="261.174" x2="642.716" y2="164.68" gradientUnits="userSpaceOnUse">
<stop stop-color="#FEF5F9"/>
<stop offset="1" stop-color="#B2BCBE"/>
</linearGradient>
<linearGradient id="paint14_linear_77_41" x1="703.984" y1="285.717" x2="703.984" y2="172.896" gradientUnits="userSpaceOnUse">
<stop stop-color="#FEF5F9"/>
<stop offset="1" stop-color="#B2BCBE"/>
</linearGradient>
<linearGradient id="paint15_linear_77_41" x1="142.773" y1="276.826" x2="282.249" y2="157.65" gradientUnits="userSpaceOnUse">
<stop stop-color="#322F52"/>
<stop offset="0.53" stop-color="#BBBCBE"/>
<stop offset="1" stop-color="#4E5068"/>
</linearGradient>
<linearGradient id="paint16_linear_77_41" x1="362.719" y1="181.447" x2="362.719" y2="105.377" gradientUnits="userSpaceOnUse">
<stop stop-color="#FEF5F9"/>
<stop offset="1" stop-color="#B2BCBE"/>
</linearGradient>
<linearGradient id="paint17_linear_77_41" x1="96.2025" y1="427.996" x2="96.2025" y2="252.613" gradientUnits="userSpaceOnUse">
<stop stop-color="#FEF5F9"/>
<stop offset="1" stop-color="#B2BCBE"/>
</linearGradient>
<linearGradient id="paint18_linear_77_41" x1="953.072" y1="437.863" x2="953.072" y2="280.827" gradientUnits="userSpaceOnUse">
<stop stop-color="#FEF5F9"/>
<stop offset="1" stop-color="#B2BCBE"/>
</linearGradient>
<linearGradient id="paint19_linear_77_41" x1="1011.77" y1="519.238" x2="1011.77" y2="420.685" gradientUnits="userSpaceOnUse">
<stop stop-color="#FEF5F9"/>
<stop offset="1" stop-color="#B2BCBE"/>
</linearGradient>
<linearGradient id="paint20_linear_77_41" x1="712.509" y1="166.554" x2="712.509" y2="1.28619" gradientUnits="userSpaceOnUse">
<stop stop-color="#FEF5F9"/>
<stop offset="1" stop-color="#B2BCBE"/>
</linearGradient>
<linearGradient id="paint21_linear_77_41" x1="23.8957" y1="483.099" x2="23.8957" y2="406.269" gradientUnits="userSpaceOnUse">
<stop stop-color="#FEF5F9"/>
<stop offset="1" stop-color="#B2BCBE"/>
</linearGradient>
<linearGradient id="paint22_linear_77_41" x1="96.2024" y1="219.446" x2="96.2024" y2="178.963" gradientUnits="userSpaceOnUse">
<stop stop-color="#FEF5F9"/>
<stop offset="1" stop-color="#B2BCBE"/>
</linearGradient>
<linearGradient id="paint23_linear_77_41" x1="960.4" y1="241.584" x2="960.4" y2="167.863" gradientUnits="userSpaceOnUse">
<stop stop-color="#FEF5F9"/>
<stop offset="1" stop-color="#B2BCBE"/>
</linearGradient>
<linearGradient id="paint24_linear_77_41" x1="440.344" y1="512.217" x2="606.469" y2="389.282" gradientUnits="userSpaceOnUse">
<stop stop-color="#322F52"/>
<stop offset="0.53" stop-color="#BBBCBE"/>
<stop offset="1" stop-color="#4E5068"/>
</linearGradient>
</defs>
</svg>
