<svg width="121" height="123" viewBox="0 0 121 123" fill="none" xmlns="http://www.w3.org/2000/svg">
<path fill-rule="evenodd" clip-rule="evenodd" d="M37.9331 41.2837L40.1571 38.1953C40.3741 37.9034 40.5164 37.7608 40.747 37.4554C42.5031 35.0864 43.9677 33.6067 45.6899 31.5432C45.9001 31.292 46.1103 31.1087 46.3476 30.8712C46.8155 30.4028 47.3511 29.9752 47.7037 29.4525C49.453 30.3825 51.46 31.7129 53.6162 32.8329C54.5316 33.308 56.6471 34.5706 57.4743 34.7674C57.4336 35.2969 55.9826 37.3536 55.6097 37.9781C55.2571 38.5618 54.9791 38.9623 54.6536 39.5596L50.8769 46.1642C50.6939 46.524 50.6125 46.6597 50.4091 47.0263C50.2057 47.3928 50.0904 47.5014 49.9887 47.9358C49.3988 47.8883 47.4325 46.7887 46.8494 46.49L42.3065 44.0328C41.5132 43.5916 38.2111 41.6639 37.9331 41.2837ZM43.1201 38.6093V38.7315C43.5541 38.7315 43.9338 38.7926 44.2864 38.8333C44.7203 38.8876 45.1136 38.9012 45.4865 38.9623C46.89 39.1931 47.9749 40.1909 48.1308 41.6435L48.4428 44.0532L48.6801 41.6842C48.836 40.2859 49.8192 39.1591 51.2838 38.9623L53.7044 38.6025L51.3244 38.3785C49.9548 38.1545 48.8428 37.1703 48.6868 35.7516L48.4428 33.3352C48.002 33.9732 48.775 36.8377 46.551 38.0391C45.7916 38.4464 45.2017 38.3921 44.3474 38.5007C43.9948 38.5482 43.5541 38.6093 43.1201 38.6093Z" fill="url(#paint0_linear_77_95)"/>
<path fill-rule="evenodd" clip-rule="evenodd" d="M21.7073 51.1058H30.8745C31.4711 49.9315 32.0068 48.9404 32.1695 48.6689C32.5357 48.0716 32.7933 47.5082 33.1595 46.8837L36.2445 41.8811L31.8305 38.8129C31.5932 38.6365 31.5186 38.5414 31.3016 38.3785L27.8029 35.4801L25.423 38.65C24.3517 40.0823 19.8766 47.4199 19.4766 49.1237L21.6463 51.0582L21.7073 51.1058Z" fill="url(#paint1_linear_77_95)"/>
<path fill-rule="evenodd" clip-rule="evenodd" d="M81.3142 51.1057C81.7753 48.1734 82.1617 45.2817 82.1889 43.9377C82.8398 43.992 89.2541 45.6211 92.1968 45.8723L92.4409 49.7346C92.4409 50.1215 92.4477 50.5898 92.4612 51.1125H81.3142V51.1057Z" fill="url(#paint2_linear_77_95)"/>
<path fill-rule="evenodd" clip-rule="evenodd" d="M60.1254 18.9449C59.2169 18.334 56.4573 16.508 55.9013 15.6867C56.1182 15.5849 56.7217 15.4084 56.9861 15.327L60.3153 14.431C61.1561 14.2409 61.746 14.1051 62.6207 13.9626C63.3394 13.8404 64.1869 13.6368 65.0684 13.6368V13.5146C63.4885 13.5146 61.5087 13.9422 60.1458 14.2613L55.6572 15.4424C54.891 14.9265 53.7044 13.4807 53.4874 12.5439C54.0638 12.5439 54.8367 12.381 55.3995 12.286C56.7827 12.0484 59.6305 11.8176 61.0883 11.8176V11.6955C59.5695 11.6955 58.3829 11.7701 57.0878 11.9127L53.3722 12.415C52.8907 11.4104 53.2365 10.8334 53.3722 10.2429C53.8875 10.2429 53.9756 10.1478 54.457 10.1207C59.4067 9.86952 64.5192 10.1207 69.1705 11.2067C69.1705 13.4196 70.9402 13.3042 71.4555 14.3088L71.4759 14.5056C71.4759 14.5124 71.4691 14.5328 71.4691 14.5464C71.4691 14.5599 71.4555 14.5735 71.4623 14.5871C72.2488 14.5871 72.0522 14.6617 72.8659 15.1097C73.3202 15.3609 73.5371 15.6256 74.1135 15.6731C73.8626 16.0465 73.4964 16.2501 73.1438 16.5148C72.8319 16.7524 72.4455 17.0443 72.1471 17.3294L67.5771 21.694C67.2517 22.0673 67.1906 22.2574 66.7499 22.556C65.604 22.2913 60.8645 19.3657 60.6001 19.2979C60.7832 19.0467 61.3798 18.7345 61.685 18.5716L65.2243 16.7999C66.9127 15.9854 68.0789 15.6188 69.7876 15.0894C69.9978 15.0215 69.9842 15.0283 70.1401 14.9604C70.4181 14.8382 70.2486 14.9197 70.3707 14.8314C68.8654 14.8654 63.8276 17.0782 62.4511 17.7706C61.9494 18.0353 60.5051 18.8431 60.1254 18.9449Z" fill="url(#paint3_linear_77_95)"/>
<path fill-rule="evenodd" clip-rule="evenodd" d="M84.2435 21.1171C84.3452 21.5515 84.535 21.7212 84.752 22.0606L86.4607 25.0608C86.9285 25.9839 88.1693 28.6719 88.3456 29.4525C87.1726 29.4525 82.7993 28.5905 82.0737 28.2443C82.0737 26.2758 81.2194 22.1827 80.6092 20.2889C80.4057 19.6577 79.9108 18.3612 79.8972 17.8589C80.2837 18.0422 80.9617 18.1236 81.4567 18.2322C82.5416 18.463 85.5385 18.9992 85.6877 17.2548C88.2846 18.6327 90.0814 19.807 92.4614 21.5854L96.177 24.7485C97.4721 25.8957 98.6722 26.6491 97.8111 28.0678C97.4788 28.6108 97.4517 28.5294 97.0314 28.2443C97.1873 28.8348 97.5263 28.5565 96.9703 28.8891C96.7805 29.0045 96.3465 29.2014 96.1363 29.2828C95.6753 29.4661 94.7057 29.6901 94.1361 29.6901C94.0005 29.1742 92.3461 27.0157 91.9325 26.4659C91.4578 25.8278 89.9933 23.9069 89.4373 23.5335C89.5254 23.8593 91.4782 26.1536 91.8511 26.6695L93.5191 29.1131C94.0954 29.9277 94.109 29.8123 92.0884 29.8123L89.2542 29.6358C88.7796 29.5204 88.8542 29.5408 88.6643 29.1403C88.5355 28.8756 88.5016 28.7127 88.3863 28.4479C88.2575 28.1425 88.1761 28.0271 88.0405 27.7081C87.8032 27.1379 87.6337 26.7985 87.3896 26.3098C86.9082 25.3595 84.908 21.6058 84.2435 21.1171Z" fill="url(#paint4_linear_77_95)"/>
<path fill-rule="evenodd" clip-rule="evenodd" d="M59.1626 34.4008C59.1965 33.9663 60.5119 32.0725 60.8238 31.5974C62.4986 29.0927 63.8953 27.3007 65.6379 24.9453C65.9837 24.4769 66.3295 24.1036 66.6346 23.6488L70.1672 25.1829C70.7842 25.4476 71.3741 25.6919 71.9572 25.9227C72.581 26.1739 73.2998 26.3911 73.8693 26.6626C73.3743 28.8008 69.9435 38.0458 69.8892 38.7382C69.2112 38.6839 67.7873 38.0187 67.1296 37.754C66.2685 37.4078 65.3463 37.0345 64.4581 36.6883C63.9903 36.505 63.6716 36.3353 63.2037 36.1385L60.5187 34.9642C60.0644 34.7537 59.6983 34.4483 59.1626 34.4008Z" fill="url(#paint5_linear_77_95)"/>
<path fill-rule="evenodd" clip-rule="evenodd" d="M81.8364 34.109V34.0343L81.7143 29.0859C80.5345 29.0588 75.6594 27.1853 74.4796 26.9138L73.5643 29.9819C72.9879 31.9911 71.0623 37.7201 70.7368 39.1048C72.12 39.77 79.7412 42.0847 81.4702 42.4852C81.4702 41.0326 81.7211 39.7021 81.7143 38.2631C81.7008 36.8716 81.8296 35.6226 81.8364 34.109ZM74.2491 34.1565C74.4999 34.1565 74.7576 34.1225 74.9678 34.0954C75.4695 34.0343 75.8154 34.0682 76.2629 33.8239C77.5715 33.1179 77.1172 31.4345 77.3749 31.0612L77.5172 32.4799C77.6054 33.308 78.2631 33.8917 79.0632 34.0207L80.46 34.1497L79.036 34.3601C78.1817 34.4755 77.5986 35.1339 77.5105 35.9552L77.3749 37.3468L77.1918 35.9281C77.1036 35.0728 76.4663 34.4891 75.6391 34.3533C75.4153 34.3194 75.1916 34.3126 74.9339 34.2786C74.7237 34.2515 74.5067 34.2175 74.2491 34.2175V34.1565Z" fill="url(#paint6_linear_77_95)"/>
<path fill-rule="evenodd" clip-rule="evenodd" d="M48.6665 28.604C48.9852 28.1289 49.4191 27.7895 49.8395 27.3619L53.128 24.4974C55.9555 22.2913 56.6335 21.8026 59.644 19.7866C60.5865 20.4179 65.1633 23.0855 66.0379 23.2892C65.9634 23.581 62.5257 27.8574 62.0443 28.4615C61.3595 29.3168 60.756 30.2467 60.1322 31.1359C59.8135 31.5907 59.5287 31.9912 59.1965 32.4935C58.9931 32.7922 58.4235 33.6338 58.2066 33.7968C56.9929 33.5185 49.7446 29.3303 48.6665 28.604Z" fill="black"/>
<path fill-rule="evenodd" clip-rule="evenodd" d="M22.8603 29.4525H23.1044C23.3417 30.4707 25.2064 32.8329 26.0878 33.7085C26.3319 33.9461 26.4472 34.0615 26.6777 34.3262C26.6913 34.3466 26.7184 34.3737 26.7319 34.3941L27.3286 35.005C27.132 35.2969 26.9421 35.4394 26.7252 35.7245L22.7857 41.3177C22.4399 41.9014 22.1077 42.4241 21.789 42.9739C21.45 43.5645 21.1584 44.1618 20.7923 44.7591C20.3787 45.4447 19.1853 47.7662 19.009 48.5264C18.2429 48.3228 15.7612 45.1732 15.1985 44.25C14.0593 42.3902 14.2627 42.7024 14.7916 41.6435C16.6495 37.883 18.3446 35.0457 21.0432 31.7264C21.3686 31.3124 22.7315 29.9141 22.8603 29.4525Z" fill="black"/>
<path fill-rule="evenodd" clip-rule="evenodd" d="M23.9451 28.4819L25.9114 26.4659C26.2572 26.1808 26.3657 26.1333 26.6911 25.7939C27.7896 24.6671 29.9186 23.0923 31.2137 22.1149C31.5052 21.8977 31.7087 21.7755 32.0002 21.5786C32.3325 21.3546 32.502 21.1985 32.841 20.9745C33.4038 20.5944 35.8447 18.9925 36.3668 18.9449C36.9703 20.2007 36.8753 20.0446 37.8653 21.3071L39.7434 23.4114L32.9563 28.9299C32.0748 29.8123 30.1491 31.679 29.505 32.4799C29.3626 32.6564 28.271 33.8375 28.1625 33.9122C26.7183 32.9483 24.7248 29.9684 23.9451 28.4819Z" fill="url(#paint7_linear_77_95)"/>
<path fill-rule="evenodd" clip-rule="evenodd" d="M41.3098 23.0516C42.0353 22.0605 48.9988 18.3883 51.0126 17.5466C51.6703 17.2683 52.1449 17.0715 52.8026 16.8067C53.4129 16.5624 54.1791 16.3248 54.7011 16.0465C55.1893 16.7796 58.2948 18.9653 59.1627 19.4269C58.8643 19.8749 56.7353 21.0695 56.22 21.4293C54.335 22.7393 51.7178 24.7214 49.9684 26.2758C49.6769 26.5337 49.5819 26.6695 49.2768 26.9071C48.7818 27.2804 48.4293 27.7963 47.9479 28.1153L41.3098 23.0516Z" fill="url(#paint8_linear_77_95)"/>
<path fill-rule="evenodd" clip-rule="evenodd" d="M89.3083 30.6539C89.7287 30.6539 90.461 30.7422 90.9763 30.7965C92.8274 30.9933 92.9833 30.9119 94.6106 30.7761L95.4921 32.4256C95.8108 33.0772 96.1091 33.532 96.4142 34.1565C97.4313 36.2064 98.7738 39.2406 99.5061 41.4466C99.6078 41.7656 100.652 44.6573 100.53 44.8609C100.299 45.2682 95.2209 44.9356 94.4818 44.9017C92.2646 44.793 92.7189 44.7387 92.6308 43.9785C92.2172 40.4827 90.9085 35.1475 89.6745 31.7264C89.5389 31.3056 89.4168 31.1223 89.3083 30.6539Z" fill="url(#paint9_linear_77_95)"/>
<path fill-rule="evenodd" clip-rule="evenodd" d="M102.557 51.1057C102.442 50.4676 102.327 49.8499 102.205 49.2594L101.493 46.1098C102.327 46.1098 103.412 45.8044 104.123 45.6007C104.924 45.3767 105.676 44.9695 106.32 44.535L107.459 47.9833C107.771 49.0897 108.022 50.0943 108.239 51.0989H102.557V51.1057Z" fill="url(#paint10_linear_77_95)"/>
<path fill-rule="evenodd" clip-rule="evenodd" d="M40.8283 22.5696C39.8655 21.9248 37.7161 19.2164 37.4517 18.2254C39.8248 16.9696 41.8454 16.0329 44.3406 15.103C45.5 14.6754 46.8765 14.207 48.063 13.8812C53.4264 12.3946 51.5482 12.6661 53.1619 14.4581C53.4263 14.75 53.5077 14.9129 53.7654 15.1844C54.0637 15.4967 54.2264 15.5035 54.3417 15.9379C53.9756 15.965 52.8365 16.4198 52.4432 16.5759C51.7855 16.8407 51.3108 17.0443 50.6531 17.3158C49.4259 17.8317 48.3478 18.3408 47.1816 18.911L40.8283 22.5696Z" fill="url(#paint11_linear_77_95)"/>
<path fill-rule="evenodd" clip-rule="evenodd" d="M94.9768 30.7761C96.4549 30.4299 96.977 30.4503 98.1161 29.6901L100.36 32.7582C101.778 34.6995 105.351 41.243 105.839 43.3336C104.524 44.2161 102.815 44.7659 101.133 44.9017L96.7872 34.0411L94.9768 30.7761Z" fill="url(#paint12_linear_77_95)"/>
<path fill-rule="evenodd" clip-rule="evenodd" d="M67.3601 22.9294C67.5364 22.2709 71.1775 18.6869 71.4894 18.3747C71.8623 18.0014 72.181 17.628 72.5946 17.309C74.527 15.8157 73.8829 15.6799 75.1983 16.2908C75.5305 16.447 76.5069 16.8678 76.8866 16.8949C76.2153 19.7798 74.744 23.5063 74.2355 25.7056C73.415 25.692 68.2416 23.3977 67.3601 22.9294Z" fill="url(#paint13_linear_77_95)"/>
<path fill-rule="evenodd" clip-rule="evenodd" d="M74.7168 25.95C75.1101 25.1287 76.9882 17.8521 77.0086 17.0172C77.3205 17.0919 77.4764 17.1598 77.7341 17.2548C77.9578 17.3362 78.2494 17.4177 78.4732 17.4856C79.8835 17.9132 79.5852 17.4584 80.2022 19.6237C80.3649 20.2007 80.5073 20.6894 80.6226 21.2528C81.0158 23.1738 81.5989 26.174 81.5989 28.1289C80.5887 28.0407 75.3677 26.2894 74.7168 25.95Z" fill="url(#paint14_linear_77_95)"/>
<path fill-rule="evenodd" clip-rule="evenodd" d="M23.3416 25.95C23.3416 25.0404 23.6399 24.2259 24.101 23.6897C24.6773 23.0109 25.7283 22.2642 26.3927 21.6329L28.8608 19.6373C29.1795 19.3997 29.3965 19.264 29.7151 19.0468C31.2543 18.0014 34.7869 15.5442 36.2515 15.2048C36.0752 15.5646 35.7972 16.3113 35.7972 16.7728C35.7972 17.472 36.0955 18.1915 36.1294 18.5852C34.2852 19.5626 32.1019 21.0424 30.4271 22.2981C30.1152 22.5289 29.8914 22.6647 29.5796 22.9023L25.9046 25.984C25.3147 26.5677 24.2162 27.871 23.7077 28.0067C23.6467 27.3415 23.3416 27.0836 23.3416 25.95Z" fill="url(#paint15_linear_77_95)"/>
<path fill-rule="evenodd" clip-rule="evenodd" d="M37.2144 14.9672C37.4111 14.4649 37.3839 14.5396 37.906 14.336C39.3706 13.759 41.0861 12.9648 42.6998 12.4965C44.9509 11.8448 49.8057 10.4262 52.1585 10.3787C51.5821 11.4715 51.8262 11.777 52.0364 12.673C49.0192 13.3789 45.1272 14.3699 42.3879 15.5714L37.2009 17.8657C37.1398 17.1529 36.9568 17.0375 36.9568 16.0533C36.9703 15.6528 37.0992 15.2727 37.2144 14.9672Z" fill="url(#paint16_linear_77_95)"/>
<path fill-rule="evenodd" clip-rule="evenodd" d="M13.6931 40.1977C13.6931 38.5075 14.0253 37.9916 14.9678 36.2811C16.9952 32.6156 17.4698 31.7128 20.1684 28.0881C20.6227 27.484 21.0973 27.0021 21.5313 26.4319C21.694 26.2215 22.8196 24.9725 22.9755 24.8639C22.7246 25.9364 22.4941 25.2644 22.4941 27.2804C22.4941 28.475 23.1857 28.6787 22.5212 29.4729L19.1513 33.5863C17.897 35.2629 15.5306 39.1387 14.6424 41.148C14.4729 41.5281 14.3779 41.8878 14.0525 42.1254C13.8965 41.4534 13.6931 41.0733 13.6931 40.1977Z" fill="url(#paint17_linear_77_95)"/>
<path fill-rule="evenodd" clip-rule="evenodd" d="M98.238 29.5678C98.3262 29.4525 99.3026 28.5972 98.8415 27.6333C99.8179 27.8912 104.239 34.4687 104.829 35.643C105.046 36.0774 105.174 36.2199 105.391 36.6476C105.764 37.3874 106.083 38.0391 106.436 38.745C107.08 40.0347 107.541 41.2837 106.442 42.7363C106.212 43.0417 106.354 42.9806 105.947 43.0893C105.886 42.3833 104.707 40.0008 104.381 39.3491C102.856 36.2946 101.459 33.8578 99.3704 31.0883C98.9771 30.5657 98.5703 30.0701 98.238 29.5678Z" fill="url(#paint18_linear_77_95)"/>
<path fill-rule="evenodd" clip-rule="evenodd" d="M106.558 44.2975C106.877 43.8155 107.094 43.8427 107.358 43.1707C107.588 42.5869 107.521 42.1457 107.521 41.399C107.853 41.6434 108.077 42.519 108.233 42.9806C108.782 44.6233 109.731 47.9154 110.341 51.0989H108.517C108.253 49.9314 107.961 48.8114 107.663 47.7796C107.317 46.6121 106.816 45.4039 106.558 44.2975Z" fill="url(#paint19_linear_77_95)"/>
<path fill-rule="evenodd" clip-rule="evenodd" d="M70.73 8.13185V8.27439C71.7538 8.27439 73.4151 8.46445 74.4457 8.62057C80.0327 9.64554 78.1885 14.4921 78.9343 16.3927C79.1174 13.6911 79.5445 9.23148 83.545 8.62057L87.2607 8.13185L83.5857 7.74494C81.4092 7.39875 79.7818 5.91901 79.4632 3.7401C79.2937 2.57259 79.1377 1.22181 79.1377 0C78.6495 0.359756 78.9614 -0.122189 78.7444 1.63587C78.5139 3.52968 78.6699 4.90083 77.2256 6.35343C75.7814 7.80603 72.7234 8.13185 70.73 8.13185Z" fill="url(#paint20_linear_77_95)"/>
<path fill-rule="evenodd" clip-rule="evenodd" d="M13.1643 39.9873C13.1439 40.8358 13.0354 41.5553 13.3473 42.7092C13.6932 43.9718 13.6592 43.0079 12.9202 45.0986C10.3368 52.3684 10.2351 51.581 8.86548 59.1562C9.07567 55.4433 10.1741 45.2411 13.1643 39.9873Z" fill="url(#paint21_linear_77_95)"/>
<path fill-rule="evenodd" clip-rule="evenodd" d="M18.2766 21.5989H18.3987C18.3987 20.0513 18.792 19.6644 20.3311 19.6644L19.8972 19.4947C19.409 19.3657 19.2395 19.4675 18.8394 19.101C18.4529 18.7412 18.3987 18.3 18.3987 17.6077H18.2766C18.2766 18.3136 18.1817 18.8702 17.7885 19.1757C17.5579 19.3522 17.4291 19.3589 17.0697 19.42L16.3442 19.6644C17.8495 19.6712 18.2766 20.1056 18.2766 21.5989Z" fill="url(#paint22_linear_77_95)"/>
<path fill-rule="evenodd" clip-rule="evenodd" d="M103.344 23.7778H103.439C103.439 22.8614 103.568 21.5038 104.205 20.9201C104.808 20.3702 105.527 20.282 106.32 20.2481C106.646 20.2345 106.782 20.2549 107.06 20.058C105.609 20.058 103.927 19.9019 103.615 18.2049C103.54 17.7909 103.432 16.9831 103.432 16.5283H103.337C103.337 19.4946 102.279 20.0648 99.7163 20.0648C99.8994 20.187 99.54 20.058 99.9604 20.1938C100.198 20.2684 100.103 20.2345 100.367 20.2481C100.788 20.2684 100.862 20.2888 101.208 20.3363C101.588 20.3906 101.662 20.3974 101.947 20.5264C102.571 20.8182 103.032 21.4224 103.154 22.1079C103.235 22.4609 103.344 23.3908 103.344 23.7778Z" fill="url(#paint23_linear_77_95)"/>
<path fill-rule="evenodd" clip-rule="evenodd" d="M56.8368 51.1057H65.4548C65.5294 50.902 65.6107 50.6916 65.6853 50.4744C66.1193 49.3137 66.5125 48.1597 66.9465 46.9108L68.845 41.5687C68.9942 41.1072 69.3671 40.2179 69.401 39.831C68.7908 39.7835 64.553 38.0119 63.7393 37.6521C62.8647 37.2652 61.929 36.919 61.0407 36.4914C60.4644 36.2131 58.8506 35.3782 58.3082 35.3646L53.1619 44.3382C53.0059 44.6504 52.911 44.8744 52.755 45.1391C52.4364 45.6957 52.1923 46.1641 51.8804 46.7954C51.6091 47.3384 51.1277 47.9018 51.0735 48.5263C51.6227 48.8182 52.077 49.0422 52.7144 49.3001C53.406 49.5852 55.0129 50.3047 56.8368 51.1057Z" fill="url(#paint24_linear_77_95)"/>
<path fill-rule="evenodd" clip-rule="evenodd" d="M102.523 54.7372H102.489C99.8451 54.7372 98.1229 56.183 97.3635 58.0157C97.0719 58.7216 96.9227 59.4819 96.9227 60.2421C96.9227 61.0024 97.0651 61.7626 97.3499 62.4618C98.089 64.247 99.7909 65.6317 102.489 65.6317C102.93 65.6317 103.357 65.5299 103.737 65.3737C104.239 65.1701 104.673 64.885 104.978 64.6407C105.249 64.4302 105.398 64.3963 105.48 64.4778C105.602 64.5999 105.683 64.8986 105.785 65.2855L105.819 65.4145H106.849V63.7515C106.849 62.9709 106.761 62.455 106.585 62.0341C106.415 61.6336 106.171 61.3282 105.846 60.9616H106.036L106.124 60.9345L106.293 60.8259V60.405H102.849V60.8055L103.005 60.9616H104.673C104.842 60.9616 104.991 60.982 105.107 61.016C105.215 61.0499 105.297 61.0906 105.351 61.1449C105.642 61.4775 105.771 61.8441 105.771 62.2242C105.771 62.5568 105.669 62.8962 105.5 63.222C105.324 63.5546 105.066 63.8669 104.768 64.1384C104.137 64.7018 103.296 65.0887 102.489 65.0887C100.821 65.0887 99.7163 63.8397 99.2145 62.2378C99.0111 61.5929 98.9026 60.887 98.9026 60.1878C98.8959 59.4887 98.9908 58.7828 99.1874 58.1379C99.662 56.5563 100.76 55.3209 102.496 55.3006C103.147 55.2938 103.913 55.4295 104.483 55.7689C104.917 56.0269 105.236 56.4002 105.303 56.9161L105.446 57.9953H105.805L105.88 57.8596L105.9 57.7781V55.1784L105.866 55.0766L105.778 54.968H105.453L105.398 55.1512C105.351 55.3006 105.303 55.4771 105.236 55.5653C105.229 55.5789 105.215 55.5789 105.202 55.5721C104.991 55.416 104.659 55.2123 104.212 55.0494C103.771 54.8661 103.208 54.7372 102.523 54.7372ZM36.855 54.7372H36.8211C34.1767 54.7372 32.4545 56.183 31.6951 58.0157C31.4035 58.7216 31.2543 59.4819 31.2543 60.2421C31.2543 61.0024 31.3967 61.7626 31.6815 62.4618C32.4206 64.247 34.1225 65.6317 36.8211 65.6317C37.2618 65.6317 37.689 65.5299 38.0687 65.3737C38.5704 65.1701 39.0044 64.885 39.3095 64.6407C39.5807 64.4302 39.7299 64.3963 39.8112 64.4778C39.9333 64.5999 40.0147 64.8986 40.1164 65.2855L40.1503 65.4145H41.1809V63.7515C41.1809 62.9709 41.0927 62.455 40.9164 62.0341C40.7469 61.6336 40.5028 61.3282 40.1774 60.9616H40.3672L40.4554 60.9345L40.6249 60.8259V60.405H37.1804V60.8055L37.3364 60.9616H39.0044C39.1739 60.9616 39.3231 60.982 39.4383 61.016C39.5468 61.0499 39.6282 61.0906 39.6824 61.1449C39.974 61.4775 40.1028 61.8441 40.1028 62.2242C40.1028 62.5568 40.0011 62.8962 39.8316 63.222C39.6553 63.5546 39.3976 63.8669 39.0993 64.1384C38.4687 64.7018 37.6279 65.0887 36.8211 65.0887C35.1531 65.0887 34.0479 63.8397 33.5461 62.2378C33.3427 61.5929 33.241 60.887 33.2342 60.1878C33.2274 59.4887 33.3224 58.7828 33.519 58.1379C33.9936 56.5563 35.0921 55.3209 36.8279 55.3006C37.4788 55.2938 38.245 55.4295 38.8145 55.7689C39.2485 56.0269 39.5671 56.4002 39.6349 56.9161L39.7773 57.9953H40.1367L40.2113 57.8596L40.2316 57.7781V55.1784L40.1977 55.0766L40.1096 54.968H39.7841L39.7299 55.1512C39.6824 55.3006 39.635 55.4771 39.5672 55.5653C39.5604 55.5789 39.5468 55.5789 39.5332 55.5721C39.323 55.416 38.9908 55.2123 38.5433 55.0494C38.1026 54.8661 37.5398 54.7372 36.855 54.7372ZM13.6252 54.968V55.4024L13.7473 55.4906L13.8422 55.5246H14.3982C14.5067 55.5246 14.5745 55.5517 14.6084 55.5925C14.6423 55.6332 14.6559 55.7078 14.6559 55.7893V64.6135C14.6559 64.695 14.6423 64.7628 14.6084 64.8036C14.5745 64.8443 14.5067 64.8647 14.3982 64.8647H13.8422L13.7473 64.8986L13.6252 64.9869V65.4213H19.5649C20.0328 65.4213 20.2904 65.2448 20.3718 65.1837L20.3785 65.1769C20.426 65.143 20.4531 65.1294 20.4599 65.1362C20.487 65.1498 20.5074 65.2041 20.5413 65.3194L20.5752 65.4416H20.9006L20.9888 65.3194L21.0227 65.2244V63.0048L20.9956 62.9098L20.9142 62.7876H20.5616L20.3921 64.1587C20.365 64.3963 20.2701 64.5728 20.1141 64.6882C19.9514 64.8172 19.7141 64.8782 19.4293 64.8782H16.629C16.5205 64.8782 16.4527 64.8511 16.4188 64.8172C16.3849 64.7764 16.3713 64.7085 16.3713 64.6271V60.4661C16.3713 60.4254 16.3781 60.3575 16.4188 60.2964C16.4527 60.2421 16.5273 60.1946 16.6764 60.1946H18.758C19.0225 60.1946 19.0496 60.3847 19.0564 60.4661C19.1106 60.9073 19.1649 61.3553 19.2191 61.7965H19.5852L19.6598 61.654L19.6802 61.5726V58.2669L19.653 58.1786L19.6259 58.1379L19.5785 58.0564H19.2191L19.0564 59.3665C19.0496 59.448 19.0225 59.638 18.758 59.638H16.6764C16.5273 59.638 16.4527 59.5905 16.4188 59.5362C16.3849 59.4819 16.3781 59.4072 16.3781 59.3733V55.7961C16.3781 55.7146 16.3917 55.64 16.4256 55.5992C16.4595 55.5585 16.5273 55.5314 16.6358 55.5314H19.4361C19.7208 55.5314 19.9582 55.5924 20.1209 55.7214C20.2701 55.8368 20.365 56.0133 20.3989 56.2577L20.5684 57.6424H20.9278L21.0091 57.5134L21.0362 57.4252V55.1784L20.9956 55.0698L20.9074 54.968H20.5887L20.5548 55.0901C20.5209 55.1987 20.4938 55.2599 20.4735 55.2734C20.4667 55.2734 20.4396 55.2598 20.3921 55.2327L20.3785 55.2259C20.2904 55.1648 20.0395 54.9883 19.5717 54.9883H13.6252V54.968ZM29.7898 65.3805C29.7152 65.3466 29.6406 65.2923 29.5592 65.1769L23.3416 56.4138C23.3212 56.3934 23.3009 56.3731 23.2806 56.3663C23.267 56.3595 23.2534 56.3595 23.2467 56.3663C23.2399 56.3663 23.2331 56.373 23.2263 56.3798C23.2128 56.4002 23.206 56.4274 23.206 56.4817V64.5999C23.206 64.6814 23.2195 64.7493 23.2534 64.7968C23.2873 64.8375 23.3552 64.8579 23.4636 64.8579H24.3044L24.4129 64.8986L24.5214 64.9869V65.4145H21.3753V64.9801L21.4905 64.8918L21.5922 64.8579H22.4127C22.5212 64.8579 22.589 64.8307 22.6229 64.7968C22.6568 64.7561 22.6703 64.6814 22.6703 64.5999V56.2169C22.6703 55.9454 22.6703 55.5178 22.3042 55.5178H21.9381L21.8431 55.4839L21.7211 55.3956V54.9612C22.1686 54.9612 23.5721 54.9001 23.8705 54.9612C24.1145 54.968 24.2841 55.0019 24.4332 55.0901C24.5824 55.1784 24.6977 55.3006 24.8333 55.4839L29.7966 62.4957C29.8101 62.5161 29.8304 62.5364 29.844 62.5432V55.7689C29.844 55.6875 29.8305 55.6196 29.7966 55.5721C29.7627 55.5313 29.6949 55.5042 29.5864 55.5042H28.7659L28.6642 55.4703L28.549 55.382V54.9476H31.6883V55.3752L31.5798 55.4635L31.4713 55.5042H30.6509C30.5356 55.5042 30.4746 55.5313 30.4407 55.5721C30.4068 55.6128 30.3932 55.6807 30.3932 55.7622V65.3941H30.0068C29.9254 65.4145 29.8644 65.4145 29.7898 65.3805ZM42.9574 64.7968C42.9913 64.7561 43.0048 64.6814 43.0048 64.5999V55.7757C43.0048 55.6943 42.9913 55.6264 42.9574 55.5789C42.9235 55.5381 42.8624 55.511 42.7472 55.511H41.9132L41.8182 55.4771L41.6962 55.3888V54.9544H46.0424V55.382L45.934 55.4703L45.8255 55.511H44.9847C44.8762 55.511 44.8084 55.5381 44.7745 55.5789C44.7406 55.6196 44.727 55.6943 44.727 55.7757V64.5999C44.727 64.6814 44.7406 64.7493 44.7745 64.7968C44.8084 64.8375 44.8694 64.8579 44.9847 64.8579H45.8255L45.934 64.8986L46.0424 64.9869V65.4145H41.6962V64.9801L41.8182 64.8918L41.9199 64.8579H42.7539C42.8556 64.8579 42.9235 64.8375 42.9574 64.7968ZM54.5722 65.3805C54.4976 65.3466 54.423 65.2923 54.3417 65.1769L48.124 56.4138C48.1037 56.3934 48.0834 56.3731 48.063 56.3663C48.0495 56.3595 48.0359 56.3595 48.0291 56.3663C48.0223 56.3663 48.0155 56.373 48.0088 56.3798C47.9952 56.4002 47.9884 56.4274 47.9884 56.4817V64.5999C47.9884 64.6814 48.002 64.7493 48.0359 64.7968C48.0698 64.8375 48.1376 64.8579 48.2461 64.8579H49.0868L49.1953 64.8986L49.3038 64.9869V65.4145H46.1577V64.9801L46.273 64.8918L46.3747 64.8579H47.1951C47.3036 64.8579 47.3714 64.8307 47.4053 64.7968C47.4392 64.7561 47.4528 64.6814 47.4528 64.5999V56.2169C47.4528 55.9454 47.4528 55.5178 47.0866 55.5178H46.7205L46.6256 55.4839L46.5035 55.3956V54.9612C46.951 54.9612 48.3546 54.9001 48.6529 54.9612C48.897 54.968 49.0665 55.0019 49.2157 55.0901C49.3648 55.1784 49.4801 55.3006 49.6157 55.4839L54.579 62.4957C54.5926 62.5161 54.6129 62.5364 54.6265 62.5432V55.7689C54.6265 55.6875 54.6129 55.6196 54.579 55.5721C54.5451 55.5313 54.4773 55.5042 54.3688 55.5042H53.5484L53.4467 55.4703L53.3314 55.382V54.9476H56.4707V55.3752L56.3623 55.4635L56.2538 55.5042H55.4333C55.3181 55.5042 55.257 55.5313 55.2231 55.5721C55.1892 55.6128 55.1757 55.6807 55.1757 55.7622V65.3941H54.7892C54.7078 65.4145 54.6468 65.4145 54.5722 65.3805ZM62.6138 58.1243L62.6409 58.165L62.668 58.2533V61.559L62.6477 61.6404L62.5731 61.783H62.207C62.1527 61.3418 62.0917 60.8938 62.0443 60.4525C62.0375 60.3711 62.0103 60.181 61.7459 60.181H59.6643C59.5151 60.181 59.4406 60.2285 59.4067 60.2829C59.366 60.3372 59.3592 60.4118 59.3592 60.4525V64.6135C59.3592 64.695 59.3728 64.7628 59.4067 64.8036C59.4406 64.8443 59.5084 64.8647 59.6168 64.8647H62.4172C62.7019 64.8647 62.9393 64.8036 63.102 64.6746C63.2512 64.5592 63.3461 64.3827 63.38 64.1451L63.5495 62.774H63.9021L63.9834 62.8962L64.0106 62.9912V65.2108L63.9767 65.3059L63.8885 65.4281H63.5631L63.5292 65.3059C63.4953 65.1973 63.4681 65.1362 63.4478 65.1226C63.441 65.1226 63.4139 65.1362 63.3664 65.1633L63.3597 65.1701C63.2715 65.2312 63.0206 65.4077 62.5528 65.4077H56.6131V64.9733L56.7352 64.885L56.8301 64.8511H57.3861C57.5014 64.8511 57.5624 64.8239 57.5963 64.79C57.6302 64.7493 57.6437 64.6814 57.6437 64.5999V55.7757C57.6437 55.6943 57.6302 55.6196 57.5963 55.5789C57.5624 55.5381 57.4946 55.511 57.3861 55.511H56.8301L56.7352 55.4771L56.6131 55.3888V54.9544H62.5528C63.0206 54.9544 63.2783 55.1309 63.3597 55.192L63.3732 55.1988C63.4207 55.2259 63.4478 55.2463 63.4546 55.2395C63.4817 55.2259 63.5088 55.1648 63.5359 55.0562L63.5698 54.934H63.8885L63.9767 55.0358L64.0174 55.1445V57.3912L63.9902 57.4795L63.9089 57.6084H63.5495L63.3868 56.2237C63.3596 55.9794 63.2579 55.8029 63.1088 55.6875C62.946 55.5585 62.7087 55.4974 62.424 55.4974H59.6236C59.5151 55.4974 59.4473 55.5246 59.4134 55.5653C59.3795 55.606 59.366 55.6807 59.366 55.7622V59.3393C59.366 59.3801 59.3728 59.4479 59.4067 59.5023C59.4406 59.5566 59.5151 59.6041 59.6643 59.6041H61.7459C62.0103 59.6041 62.0375 59.414 62.0443 59.3326L62.207 58.0225H62.5663L62.6138 58.1243ZM70.7367 58.1243L70.7639 58.165L70.791 58.2533V61.559L70.7706 61.6404L70.6961 61.783H70.3299C70.2757 61.3418 70.2147 60.8938 70.1672 60.4525C70.1604 60.3711 70.1333 60.181 69.8689 60.181H67.7805C67.6313 60.181 67.5567 60.2285 67.5228 60.2829C67.4821 60.3372 67.4754 60.4118 67.4754 60.4525V64.6135C67.4754 64.695 67.4889 64.7628 67.5228 64.8036C67.5567 64.8443 67.6245 64.8647 67.733 64.8647H70.5333C70.8181 64.8647 71.0554 64.8036 71.2182 64.6746C71.3673 64.5592 71.4622 64.3827 71.4961 64.1451L71.6657 62.774H72.0182L72.0996 62.8962L72.1267 62.9912V65.2108L72.0928 65.3059L72.0047 65.4281H71.6792L71.6453 65.3059C71.6114 65.1973 71.5843 65.1362 71.564 65.1226C71.5572 65.1226 71.5301 65.1362 71.4826 65.1633L71.4758 65.1701C71.3877 65.2312 71.1368 65.4077 70.6689 65.4077H64.7293V64.9733L64.8513 64.885L64.9463 64.8511H65.5023C65.6175 64.8511 65.6786 64.8239 65.7125 64.79C65.7464 64.7493 65.7599 64.6814 65.7599 64.5999V55.7757C65.7599 55.6943 65.7464 55.6196 65.7125 55.5789C65.6786 55.5381 65.6108 55.511 65.5023 55.511H64.9463L64.8513 55.4771L64.7293 55.3888V54.9544H70.6689C71.1368 54.9544 71.3945 55.1309 71.4758 55.192L71.4894 55.1988C71.5368 55.2259 71.564 55.2463 71.5708 55.2395C71.5979 55.2259 71.625 55.1648 71.6521 55.0562L71.686 54.934H72.0047L72.0928 55.0358L72.1335 55.1445V57.3912L72.1064 57.4795L72.025 57.6084H71.6657L71.5029 56.2237C71.4758 55.9794 71.3741 55.8029 71.2249 55.6875C71.0622 55.5585 70.8249 55.4974 70.5401 55.4974H67.7398C67.6313 55.4974 67.5635 55.5246 67.5296 55.5653C67.4957 55.606 67.4821 55.6807 67.4821 55.7622V59.3393C67.4821 59.3801 67.4889 59.4479 67.5228 59.5023C67.5567 59.5566 67.6313 59.6041 67.7805 59.6041H69.8621C70.1265 59.6041 70.1536 59.414 70.1604 59.3326L70.3231 58.0225H70.6825L70.7367 58.1243ZM76.4391 55.5178C75.6729 55.5178 75.6729 56.0201 75.6729 56.6785V61.335L77.212 60.7376C77.9511 60.4254 78.541 59.4751 78.819 58.4637C78.9546 57.975 79.0089 57.4795 78.975 57.0315C78.9411 56.5971 78.8258 56.2169 78.5953 55.9454C78.3783 55.6807 78.0596 55.5246 77.6121 55.5246H76.4391V55.5178ZM72.6014 55.3142V54.968H78.2291C78.88 54.968 79.4767 55.2327 79.931 55.6739C80.3921 56.1151 80.7108 56.726 80.7989 57.4116C80.8531 57.8392 80.8192 58.2601 80.6904 58.6606C80.5616 59.061 80.3311 59.4479 79.992 59.8145C79.931 59.8756 79.8564 59.9638 79.8225 60.0453C79.809 60.0724 79.809 60.0996 79.8361 60.1132C80.487 60.5136 80.8803 61.1178 81.0972 61.7762C81.4024 62.679 81.382 63.67 81.2735 64.3148L81.2668 64.3759C81.2668 64.4777 81.3074 64.5864 81.382 64.6746C81.4566 64.7628 81.5719 64.8375 81.721 64.8579C81.7549 64.8647 81.7956 64.8647 81.8363 64.8647L81.938 64.8986L82.0262 64.9597L82.0939 65.0683L82.155 65.4213H79.0224L79.036 64.0298L79.0428 63.9754L79.1445 63.6836L79.2055 63.6021C79.6462 63.2899 79.9649 62.9641 80.1615 62.645C80.3311 62.3735 80.4124 62.102 80.4124 61.8441C80.4124 61.5929 80.3243 61.3418 80.1615 61.111C80.0056 60.8938 79.7818 60.6833 79.4835 60.5001C79.4564 60.4865 79.2394 60.3711 79.0156 60.4865C78.3919 60.8395 77.2934 61.2603 76.3577 61.6269L75.6797 61.8916V64.5999C75.6797 64.6814 75.6932 64.7493 75.7271 64.7968C75.761 64.8375 75.8221 64.8579 75.9374 64.8579H76.7578L76.8663 64.8986L76.9679 64.9869V65.4145H72.6488V64.9801L72.7641 64.8918L72.8658 64.8579H73.693C73.8015 64.8579 73.8693 64.8307 73.9032 64.7968C73.9371 64.7561 73.9507 64.6814 73.9507 64.5999V55.7757C73.9507 55.6943 73.9371 55.6264 73.9032 55.5789C73.8693 55.5381 73.8015 55.511 73.693 55.511H72.8183L72.7234 55.4771L72.6014 55.3888V55.3142ZM83.8365 64.7968C83.8704 64.7561 83.884 64.6814 83.884 64.5999V55.7757C83.884 55.6943 83.8704 55.6264 83.8365 55.5789C83.8026 55.5381 83.7416 55.5178 83.6263 55.5178H82.7924L82.6974 55.4839L82.5754 55.3956V54.9612H86.9216V55.3888L86.8131 55.4771L86.7046 55.5178H85.8639C85.7554 55.5178 85.6876 55.5449 85.6537 55.5857C85.6198 55.6264 85.6062 55.7011 85.6062 55.7825V64.6067C85.6062 64.6882 85.6198 64.7561 85.6537 64.8036C85.6876 64.8443 85.7486 64.8647 85.8639 64.8647H86.7046L86.8131 64.9054L86.9216 64.9936V65.4213H82.5754V64.9869L82.6974 64.8986L82.7991 64.8647H83.6331C83.7416 64.8579 83.8026 64.8375 83.8365 64.7968ZM95.4514 65.3805C95.3768 65.3466 95.3022 65.2923 95.2208 65.1769L89.0032 56.4138C88.9829 56.3934 88.9625 56.3731 88.9422 56.3663C88.9286 56.3595 88.915 56.3595 88.9083 56.3663C88.9015 56.3663 88.8947 56.373 88.8879 56.3798C88.8744 56.4002 88.8676 56.4274 88.8676 56.4817V64.5999C88.8676 64.6814 88.8811 64.7493 88.9151 64.7968C88.949 64.8375 89.0168 64.8579 89.1252 64.8579H89.966L90.0745 64.8986L90.183 64.9869V65.4145H87.0369V64.9801L87.1522 64.8918L87.2538 64.8579H88.0743C88.1828 64.8579 88.2506 64.8307 88.2845 64.7968C88.3184 64.7561 88.3319 64.6814 88.3319 64.5999V56.2169C88.3319 55.9454 88.332 55.5178 87.9658 55.5178H87.5996L87.5048 55.4839L87.3827 55.3956V54.9612C87.8302 54.9612 89.2338 54.9001 89.5321 54.9612C89.7694 54.968 89.9457 55.0019 90.0948 55.0901C90.244 55.1716 90.3593 55.3006 90.4949 55.4839L95.4582 62.4957C95.4717 62.5161 95.4921 62.5364 95.5056 62.5432V55.7689C95.5056 55.6875 95.4921 55.6196 95.4582 55.5721C95.4243 55.5313 95.3565 55.5042 95.248 55.5042H94.4275L94.3259 55.4703L94.2106 55.382V54.9476H97.3499V55.3752L97.2414 55.4635L97.1329 55.5042H96.3125C96.1973 55.5042 96.1362 55.5313 96.1023 55.5721C96.0684 55.6128 96.0549 55.6807 96.0549 55.7622V65.3941H95.6684C95.5938 65.4145 95.5328 65.4145 95.4514 65.3805Z" fill="url(#paint25_linear_77_95)"/>
<path fill-rule="evenodd" clip-rule="evenodd" d="M2.47827 68.8695V69.4533L2.63423 69.5687L2.73593 69.6026H3.75976C4.01064 69.6026 4.16659 69.6705 4.25474 69.7723C4.34288 69.8809 4.37678 70.0438 4.37678 70.2203V86.5112C4.37678 86.6944 4.34288 86.8506 4.25474 86.9592C4.16659 87.061 4.01064 87.1289 3.75976 87.1289H2.73593L2.63423 87.1628L2.47827 87.2782V87.862H10.4181C13.4151 87.862 15.7272 87.061 17.2799 85.398C18.7852 83.7824 19.5717 81.3524 19.5717 78.0535C19.5039 74.9718 18.6767 72.6979 17.1714 71.1842C15.6119 69.6162 13.3337 68.8695 10.4249 68.8695H2.47827ZM15.0966 71.4761C16.1408 72.8133 16.6697 74.9447 16.6765 78.0806C16.6765 81.7665 16.1408 84.0404 15.0899 85.3844C14.0525 86.708 12.4862 87.1289 10.4181 87.1289H7.89582C7.64495 87.1289 7.48901 87.061 7.40087 86.9592C7.31272 86.8506 7.2788 86.6877 7.2788 86.5112V70.2203C7.2788 70.037 7.31272 69.8809 7.40087 69.7723C7.48901 69.6705 7.64495 69.6026 7.89582 69.6026H10.4453C12.5133 69.6026 14.066 70.1592 15.0966 71.4761ZM21.9788 86.966C22.0669 86.8573 22.1008 86.6945 22.1008 86.518V70.2271C22.1008 70.0438 22.0669 69.8877 21.9788 69.7791C21.8906 69.6773 21.7347 69.6094 21.4838 69.6094H19.9446L19.8497 69.5755L19.687 69.4601V68.8763H27.4235V69.4533L27.2811 69.5687L27.1726 69.6094H25.6131C25.3622 69.6094 25.2062 69.6773 25.1181 69.7791C25.0299 69.8877 24.9961 70.0506 24.9961 70.2271V86.518C24.9961 86.7012 25.0299 86.8573 25.1181 86.966C25.2062 87.0746 25.3622 87.1356 25.6131 87.1356H27.1726L27.2811 87.1764L27.4235 87.2918V87.8687H19.687V87.285L19.8497 87.1696L19.9446 87.1356H21.4838C21.7347 87.1356 21.8906 87.0678 21.9788 86.966ZM43.3642 87.8144C43.249 87.7669 43.1337 87.6719 43.0049 87.4954L31.5188 71.32C31.4646 71.2453 31.3968 71.1978 31.3222 71.1774C31.268 71.1638 31.2205 71.1638 31.173 71.1774C31.1323 71.191 31.0917 71.2181 31.0645 71.2589C31.0239 71.32 30.9967 71.4014 30.9967 71.5236V86.5112C30.9967 86.6944 31.0306 86.8506 31.1188 86.9592C31.2069 87.061 31.3629 87.1289 31.6138 87.1289H33.1732L33.2817 87.1696L33.4241 87.285V87.862H27.8981V87.2782L28.054 87.1628L28.1557 87.1289H29.6678C29.9186 87.1289 30.0746 87.061 30.1627 86.9592C30.2509 86.8506 30.2848 86.6877 30.2848 86.5112V71.0349C30.2848 70.4715 30.2848 69.6026 29.4711 69.6026H28.7863L28.6914 69.5687L28.5286 69.4533V68.8695C29.2677 68.8695 31.8511 68.7609 32.346 68.8695C32.7664 68.8763 33.0648 68.9374 33.3224 69.0867C33.5801 69.2293 33.7835 69.4533 34.014 69.7723L43.1812 82.7235C43.2422 82.8118 43.31 82.8661 43.371 82.8865C43.3981 82.8933 43.4252 82.9 43.4456 82.8932C43.4591 82.8864 43.4727 82.8797 43.4863 82.8593C43.5134 82.8254 43.527 82.7643 43.527 82.676V70.2271C43.527 70.0438 43.493 69.8877 43.4049 69.7791C43.3168 69.6773 43.1608 69.6094 42.9099 69.6094H41.3911L41.2894 69.5755L41.1335 69.4601V68.8763H46.6392V69.4533L46.4968 69.5687L46.3883 69.6094H44.8695C44.6118 69.6094 44.4559 69.6773 44.3677 69.7791C44.2796 69.8877 44.2457 70.0438 44.2457 70.2271V87.8687H43.6761C43.588 87.8687 43.4863 87.8687 43.3642 87.8144ZM62.3901 87.8144C62.2748 87.7669 62.1595 87.6719 62.0307 87.4954L50.5447 71.32C50.4904 71.2453 50.4226 71.1978 50.3481 71.1774C50.2938 71.1638 50.2464 71.1638 50.1989 71.1774C50.1582 71.191 50.1175 71.2181 50.0904 71.2589C50.0497 71.32 50.0226 71.4014 50.0226 71.5236V86.5112C50.0226 86.6944 50.0565 86.8506 50.1446 86.9592C50.2328 87.061 50.3887 87.1289 50.6396 87.1289H52.1991L52.3076 87.1696L52.45 87.285V87.862H46.9239V87.2782L47.0799 87.1628L47.1816 87.1289H48.6936C48.9445 87.1289 49.1005 87.061 49.1886 86.9592C49.2767 86.8506 49.3107 86.6877 49.3107 86.5112V71.0349C49.3107 70.4715 49.3106 69.6026 48.4902 69.6026H47.8054L47.7105 69.5687L47.5477 69.4533V68.8695C48.2868 68.8695 50.8702 68.7609 51.3651 68.8695C51.7855 68.8763 52.0839 68.9374 52.3415 69.0867C52.5992 69.2293 52.8026 69.4533 53.0331 69.7723L62.2002 82.7235C62.2613 82.8118 62.3291 82.8661 62.3901 82.8865C62.4172 82.8933 62.4443 82.9 62.4647 82.8932C62.4782 82.8864 62.4918 82.8797 62.5054 82.8593C62.5325 82.8254 62.546 82.7643 62.546 82.676V70.2271C62.546 70.0438 62.5121 69.8877 62.424 69.7791C62.3359 69.6773 62.1799 69.6094 61.929 69.6094H60.4102L60.3085 69.5755L60.1526 69.4601V68.8763H65.6583V69.4533L65.5159 69.5687L65.4074 69.6094H63.8886C63.6309 69.6094 63.475 69.6773 63.3868 69.7791C63.2987 69.8877 63.2648 70.0438 63.2648 70.2271V87.8687H62.6952C62.6071 87.8687 62.5121 87.8687 62.3901 87.8144ZM77.0629 74.6324L77.1104 74.7139L77.1375 74.8021V80.8976L77.1172 80.9791L77.0222 81.1623H76.5612L76.2764 78.8341C76.2561 78.6508 76.2018 78.2028 75.5848 78.2028H71.7335C71.4013 78.2028 71.225 78.3182 71.1368 78.454C71.0487 78.5898 71.0351 78.7595 71.0351 78.8409V86.5247C71.0351 86.7012 71.069 86.8641 71.1572 86.9727C71.2453 87.0746 71.4013 87.1424 71.6522 87.1424H76.8256C77.3816 87.1424 77.8495 87.0203 78.1817 86.7623C78.4868 86.5247 78.6902 86.1718 78.7445 85.6899L79.036 83.2802H79.4903L79.592 83.4363L79.6192 83.5313V87.638L79.5852 87.733L79.47 87.8959H79.0496L79.0157 87.7737C78.9411 87.5293 78.8733 87.3936 78.7919 87.3529C78.7309 87.3189 78.6292 87.3529 78.4936 87.4411L78.4733 87.4547C78.3241 87.5565 77.8834 87.8687 77.0629 87.8687H66.2346V87.285L66.3973 87.1696L66.4922 87.1356H67.5161C67.767 87.1356 67.9229 87.0678 68.0111 86.966C68.0992 86.8573 68.1331 86.7012 68.1331 86.518V70.2271C68.1331 70.0438 68.0992 69.8809 68.0111 69.7723C67.9229 69.6637 67.767 69.6026 67.5161 69.6026H66.4922L66.3973 69.5687L66.2346 69.4533V68.8695H77.0629C77.8834 68.8695 78.3241 69.1818 78.4733 69.2836L78.4936 69.2972C78.6292 69.3854 78.7241 69.4193 78.7919 69.3854C78.8733 69.3447 78.9479 69.2089 79.0157 68.9646L79.0496 68.8424H79.4632L79.5785 68.9849L79.6192 69.0935V73.2477L79.592 73.3359L79.4903 73.5056H79.036L78.7445 71.0688C78.6834 70.5801 78.4868 70.2271 78.1817 69.9895C77.8495 69.7316 77.3884 69.6094 76.8256 69.6094H71.6522C71.4013 69.6094 71.2453 69.6773 71.1572 69.7791C71.069 69.8877 71.0351 70.0506 71.0351 70.2339V76.8385C71.0351 76.9267 71.0487 77.0896 71.1368 77.2254C71.225 77.3612 71.4013 77.4697 71.7335 77.4697H75.5848C76.2018 77.4697 76.2561 77.0285 76.2764 76.8453C76.3713 76.085 76.4663 75.318 76.5612 74.5578H77.0155L77.0629 74.6324ZM87.715 69.6026C86.1555 69.6026 86.1555 70.5936 86.1555 71.8901V80.7008L89.1863 79.5129C90.5899 78.9156 91.7154 77.1236 92.2375 75.2162C92.4884 74.2998 92.5969 73.3631 92.5359 72.5146C92.4748 71.6865 92.2443 70.9466 91.8103 70.4239C91.3832 69.9081 90.7526 69.5958 89.8847 69.5958H87.715V69.6026ZM80.7718 69.365V68.8695H91.0171C92.1765 68.8695 93.241 69.3447 94.0615 70.1253C94.8887 70.9127 95.4582 72.0191 95.6142 73.2477C95.7091 74.0215 95.6549 74.775 95.4243 75.4945C95.1938 76.214 94.7802 76.9064 94.1631 77.5648C94.0411 77.6938 93.8919 77.8702 93.8241 78.0332C93.7767 78.1485 93.7835 78.2572 93.9055 78.3318C95.0785 79.0513 95.7769 80.1442 96.1769 81.3185C96.7262 82.9543 96.6922 84.7599 96.4956 85.941C96.4888 85.9817 96.4821 86.0292 96.4821 86.0767C96.4821 86.3007 96.5702 86.5315 96.7262 86.7216C96.8889 86.9117 97.1262 87.061 97.4381 87.1085C97.5127 87.1221 97.5941 87.1289 97.6754 87.1289L97.7771 87.1628L97.9331 87.2782L98.0009 87.3868L98.0822 87.862H92.6172L92.6443 85.4387L92.6511 85.3844L92.8342 84.8481L92.8952 84.7667C93.7224 84.1761 94.3191 83.572 94.6988 82.9679C95.0311 82.4385 95.187 81.9158 95.187 81.4135C95.187 80.918 95.0175 80.4293 94.6988 79.9813C94.4005 79.5604 93.9665 79.1667 93.4037 78.8138C93.3427 78.7798 92.8749 78.5422 92.4002 78.7798C91.2611 79.4246 89.2338 80.2053 87.5048 80.8773C87.0234 81.0605 86.5691 81.237 86.1622 81.3999V86.5044C86.1622 86.6877 86.1961 86.8438 86.2843 86.9524C86.3724 87.061 86.5284 87.1221 86.7793 87.1221H88.2981L88.4066 87.1628L88.549 87.2782V87.8552H80.8667V87.2714L81.0227 87.156L81.1244 87.1221H82.65C82.9009 87.1221 83.0568 87.0542 83.145 86.9524C83.2331 86.8438 83.267 86.6809 83.267 86.5044V70.2135C83.267 70.0303 83.2331 69.8741 83.145 69.7655C83.0568 69.6637 82.9009 69.5958 82.65 69.5958H81.0362L80.9413 69.5619L80.7786 69.4465V69.365H80.7718ZM102.544 75.0533C102.896 75.6438 103.398 76.1393 103.995 76.4787C104.415 76.0918 104.829 75.7185 105.242 75.3519C106.103 74.5781 106.958 73.8111 107.771 73.0169C108.246 72.5486 108.707 71.9376 108.87 71.3335C108.992 70.8923 108.958 70.4511 108.646 70.0846C108.375 69.7723 107.988 69.4669 107.487 69.2497C107.073 69.0732 106.578 68.9578 106.009 68.9578C104.897 68.9578 103.893 69.4126 103.161 70.1389C102.435 70.8652 101.981 71.8698 101.981 72.983C101.974 73.7364 102.178 74.4492 102.544 75.0533ZM111.474 80.9655C111.44 80.7686 111.399 80.5718 111.345 80.3817L104.13 87.2443C104.374 87.3257 104.632 87.3936 104.89 87.4411C105.222 87.5022 105.568 87.5361 105.92 87.5361C107.48 87.5361 108.883 86.9049 109.894 85.8867C110.911 84.8685 111.535 83.4566 111.535 81.8954C111.541 81.5764 111.521 81.2642 111.474 80.9655ZM102.259 78.0535C102.652 77.6802 103.046 77.3204 103.412 76.9946C102.774 76.5806 102.245 76.0239 101.866 75.3655C101.459 74.6596 101.228 73.845 101.228 72.983C101.228 71.6661 101.764 70.4783 102.625 69.6162C103.486 68.7541 104.68 68.2179 105.995 68.2179C106.612 68.2179 107.202 68.3333 107.751 68.5573C108.314 68.7813 108.829 69.1139 109.277 69.5347C109.358 69.6094 109.439 69.6841 109.514 69.7588C110.226 70.4715 110.66 71.3878 110.741 72.3246C110.829 73.2613 110.558 74.2251 109.867 75.0261C109.806 75.1008 109.738 75.1755 109.663 75.2433C109.284 75.6167 108.856 76.0239 108.368 76.4719C107.88 76.9199 107.344 77.4019 106.768 77.9245C105.71 78.8952 104.693 79.8591 103.724 80.7754C103.188 81.2845 102.666 81.7733 102.137 82.2688C101.452 82.9136 101.059 83.2869 100.869 83.5585C100.713 83.7825 100.727 83.9386 100.815 84.1558C100.883 84.3187 100.998 84.5427 101.113 84.7599C101.208 84.9364 101.31 85.0993 101.398 85.2147L101.405 85.2283C101.472 85.3029 101.567 85.3369 101.689 85.3165C101.839 85.2961 102.015 85.2079 102.212 85.0586L102.293 84.9907C103.29 84.1354 104.51 83.0222 105.663 81.9429C107.426 80.3003 109.039 78.7391 109.467 78.3047C109.609 78.1485 109.69 78.0264 109.724 77.9245C109.745 77.8702 109.745 77.8295 109.731 77.8023C109.724 77.7752 109.697 77.7548 109.663 77.7413C109.602 77.7141 109.521 77.7005 109.433 77.7005H109.121L109.005 77.6598L108.856 77.5241L108.883 76.9878H115.155V77.5444L115.013 77.6598L114.904 77.7005H114.403C114.308 77.7005 114.24 77.7073 114.199 77.7209C114.159 77.7345 114.125 77.7684 114.077 77.8159L111.921 79.8862C112.023 80.1849 112.104 80.4904 112.158 80.8094C112.219 81.1691 112.253 81.5357 112.253 81.9022V82.0515L115.738 86.4094C115.888 86.5926 116.05 86.7827 116.233 86.9185C116.41 87.0474 116.62 87.1356 116.891 87.1356L118.03 87.1492L118.139 87.19L118.281 87.3053V87.8687H110.796V87.285L110.951 87.1696L111.053 87.1356H112.247C112.308 87.1356 112.362 87.1221 112.389 87.0949C112.402 87.0813 112.416 87.0678 112.423 87.0542C112.43 87.0406 112.43 87.027 112.43 87.0135C112.43 86.9795 112.416 86.9456 112.389 86.9117L111.209 85.3844C110.66 86.2261 109.914 86.932 109.033 87.4275C108.111 87.9502 107.046 88.2489 105.92 88.2489C104.944 88.2489 104.015 88.0317 103.195 87.638C102.34 87.2307 101.601 86.6469 101.025 85.9206C100.313 85.0043 99.8384 83.701 99.757 82.4656C99.6892 81.3456 99.9468 80.2799 100.652 79.5808C101.154 79.1056 101.71 78.5694 102.259 78.0535Z" fill="url(#paint26_linear_77_95)"/>
<path fill-rule="evenodd" clip-rule="evenodd" d="M19.2464 100.671H23.1722L21.0635 94.0864L18.9073 100.202C18.8395 100.399 18.8395 100.515 18.887 100.582C18.9412 100.643 19.0633 100.671 19.2464 100.671ZM14.0593 107.16L14.2153 107.051L14.3102 107.017H15.6256C15.7409 107.017 15.8087 106.983 15.8562 106.915C15.9172 106.834 15.9646 106.698 16.0189 106.542C17.9784 101.628 19.6939 96.021 21.4636 90.9708H21.5856C21.9043 90.9708 22.1077 90.7264 22.2365 90.5703C22.3179 90.4685 22.3857 90.3938 22.4738 90.3667C22.6162 90.3191 22.7247 90.3734 22.7925 90.5771L28.3321 106.834C28.366 106.922 28.3932 106.97 28.4406 106.99C28.4949 107.017 28.583 107.024 28.7118 107.024H29.4306L29.539 107.065L29.6746 107.173V107.71H23.3078V107.167L23.457 107.058L23.5587 107.024H25.1996C25.2606 107.024 25.2606 107.085 25.2674 107.058C25.2741 107.051 25.247 107.017 25.2267 106.943L23.396 101.295H19.1718C19.0158 101.295 18.8531 101.315 18.7039 101.424C18.548 101.539 18.392 101.743 18.2632 102.123L16.6562 106.732C16.6088 106.861 16.5749 106.977 16.5749 107.038C16.5749 107.044 16.5816 107.024 16.602 107.024H18.4734L18.5819 107.065L18.7175 107.173V107.71H14.0797V107.16H14.0593ZM49.6227 91.7921C49.7515 91.6699 49.8939 91.5953 50.0498 91.5953H50.7211L50.8296 91.5545L50.9652 91.4459V90.9097H46.4494V91.4527L46.5986 91.5613L46.7003 91.5953H48.409C48.47 91.5953 48.5174 91.602 48.5581 91.6156C48.6124 91.636 48.6463 91.6631 48.6734 91.7039C48.7005 91.7514 48.7141 91.8193 48.7141 91.9007C48.7141 92.0161 48.6869 92.1586 48.6395 92.2944L44.6797 103.555C44.6526 103.644 44.6051 103.698 44.5577 103.732C44.5306 103.752 44.4966 103.759 44.4695 103.759C44.4424 103.759 44.4153 103.746 44.3882 103.732C44.3475 103.698 44.3136 103.644 44.2865 103.569L41.0725 91.8668C41.0318 91.731 40.9708 91.6224 40.8827 91.5477C40.7878 91.4663 40.6725 91.4256 40.5369 91.4256H38.001L33.7497 103.542C33.7158 103.63 33.6683 103.691 33.6141 103.725C33.5802 103.746 33.5395 103.759 33.5056 103.759C33.4717 103.759 33.4378 103.746 33.4039 103.725C33.3632 103.691 33.3225 103.637 33.3022 103.562L30.2306 92.3148C30.1696 92.0976 30.1425 91.8939 30.1764 91.765C30.2035 91.6699 30.2849 91.6088 30.4476 91.6088H31.5121L31.6206 91.5681L31.7562 91.4595V90.9233H26.0064V91.4663L26.1556 91.5749L26.2573 91.6088H26.7455C26.9082 91.6088 27.0642 91.6835 27.193 91.8125C27.3422 91.9618 27.4575 92.179 27.5253 92.437C28.7661 96.8083 30.2171 103.352 31.7834 107.357C31.8376 107.513 31.9257 107.73 32.197 107.73H32.9631C33.5327 106.101 34.387 103.359 35.2888 100.603L37.445 94.4665C37.7434 93.7267 38.0146 93.1022 38.2654 92.6406C38.2858 92.5863 38.3129 92.5523 38.34 92.532C38.3604 92.5184 38.3807 92.5116 38.3943 92.5116C38.4146 92.5116 38.4282 92.5184 38.4485 92.532C38.4756 92.5523 38.496 92.5863 38.5163 92.6338L42.7134 107.289L42.7405 107.363C42.8016 107.52 42.8829 107.723 43.1474 107.723H43.8864L49.2633 92.437C49.3379 92.1722 49.4667 91.9482 49.6227 91.7921ZM51.2432 100.671C51.0601 100.671 50.938 100.643 50.8838 100.576C50.8363 100.515 50.8363 100.392 50.9041 100.195L53.0603 94.0796L55.169 100.664H51.2432V100.671ZM57.2099 106.943L55.3792 101.295H51.155C50.9991 101.295 50.8364 101.315 50.6872 101.424C50.5312 101.539 50.3753 101.743 50.2465 102.123L48.6395 106.732C48.592 106.861 48.5581 106.977 48.5581 107.038C48.5581 107.044 48.5649 107.024 48.5852 107.024H50.4567L50.5651 107.065L50.7007 107.173V107.71H46.0629V107.167L46.2189 107.058L46.3138 107.024H47.6292C47.7445 107.024 47.8123 106.99 47.8597 106.922C47.9208 106.841 47.9682 106.705 48.0225 106.549C49.982 101.634 51.6975 96.0277 53.4672 90.9776H53.5892C53.9079 90.9776 54.1113 90.7332 54.2401 90.5771C54.3215 90.4753 54.3893 90.4006 54.4774 90.3735C54.6198 90.3259 54.7283 90.3802 54.7961 90.5839L60.3357 106.841C60.3696 106.929 60.3967 106.977 60.4442 106.997C60.4984 107.024 60.5866 107.031 60.7154 107.031H61.4342L61.5426 107.072L61.6782 107.18V107.716H55.3114V107.173L55.4606 107.065L55.5623 107.031H57.2032C57.2642 107.031 57.2642 107.092 57.271 107.065C57.2574 107.044 57.2303 107.01 57.2099 106.943ZM68.4383 91.5885C67.0822 91.5885 67.0822 92.4573 67.0822 93.5909V101.336L69.7334 100.304C70.9674 99.7814 71.9506 98.2066 72.4117 96.53C72.6354 95.7291 72.7303 94.901 72.6761 94.1543C72.6218 93.428 72.4185 92.7831 72.0387 92.3216C71.6658 91.8736 71.1166 91.5953 70.3504 91.5953H68.4383V91.5885ZM62.2885 91.3645V90.9029H71.3471C72.3778 90.9029 73.3202 91.3237 74.0457 92.0161C74.778 92.7153 75.2866 93.6927 75.4222 94.7856C75.5035 95.4711 75.4561 96.1363 75.2527 96.7744C75.0493 97.4125 74.6831 98.0302 74.1339 98.6071C74.0322 98.7157 73.8966 98.8718 73.8423 99.0144C73.8084 99.1026 73.8084 99.1977 73.9034 99.252C74.9408 99.89 75.5645 100.854 75.9171 101.899C76.4053 103.345 76.3714 104.947 76.2019 105.986C76.1951 106.019 76.1951 106.06 76.1951 106.101C76.1951 106.298 76.2697 106.495 76.4053 106.658C76.5477 106.82 76.7511 106.949 77.0156 106.99C77.0766 107.004 77.1512 107.004 77.2257 107.004L77.3275 107.038L77.4631 107.139L77.5309 107.248L77.6122 107.689H72.7507L72.7778 105.531L72.7846 105.476L72.9473 105.001L73.0083 104.92C73.7339 104.404 74.2627 103.868 74.5949 103.338C74.8797 102.877 75.0221 102.415 75.0221 101.981C75.0221 101.546 74.8729 101.125 74.5949 100.732C74.3305 100.365 73.9508 100.019 73.4558 99.7068C73.3813 99.666 72.9812 99.476 72.588 99.6796C71.5845 100.25 69.7944 100.942 68.2688 101.533C67.8552 101.689 67.4619 101.845 67.0958 101.987V106.474C67.0958 106.63 67.1229 106.766 67.1975 106.861C67.2721 106.949 67.4009 107.004 67.6179 107.004H68.9604L69.0689 107.044L69.2045 107.153V107.689H62.3766V107.146L62.5258 107.038L62.6275 107.004H63.97C64.187 107.004 64.3226 106.949 64.3904 106.861C64.465 106.773 64.4921 106.63 64.4921 106.474V92.1043C64.4921 91.9482 64.465 91.8125 64.3904 91.7174C64.3158 91.6292 64.187 91.5749 63.97 91.5749H62.5461L62.4512 91.541L62.2953 91.4324V91.3645H62.2885ZM79.843 106.875C79.9176 106.786 79.9447 106.644 79.9447 106.488V92.1179C79.9447 91.9618 79.9176 91.8261 79.843 91.731C79.7684 91.6428 79.6396 91.5885 79.4226 91.5885H78.514L78.4123 91.5545L78.2632 91.4459V90.9029H85.2877C87.8642 90.9029 89.878 91.5681 91.2544 92.9528C92.5902 94.29 93.3225 96.2993 93.3835 99.028C93.3835 101.947 92.6919 104.092 91.3562 105.524C89.9797 106.997 87.9388 107.703 85.2877 107.703H78.2632V107.16L78.4123 107.051L78.514 107.017H79.4226C79.6396 107.017 79.7684 106.963 79.843 106.875ZM89.4034 93.2379C88.4948 92.0772 87.1319 91.5885 85.3148 91.5885H83.0637C82.8467 91.5885 82.7179 91.6428 82.6433 91.731C82.5687 91.8193 82.5416 91.9618 82.5416 92.1179V106.488C82.5416 106.644 82.5687 106.78 82.6433 106.875C82.7179 106.963 82.8467 107.017 83.0637 107.017H85.2945C87.1184 107.017 88.4948 106.644 89.4034 105.483C90.3255 104.302 90.8002 102.3 90.8002 99.0551C90.7866 96.2925 90.3188 94.4122 89.4034 93.2379ZM99.5469 90.5431C100.808 90.5092 102.117 90.8961 103.141 91.6971C103.235 91.7717 103.29 91.765 103.33 91.7107C103.419 91.5953 103.486 91.3645 103.554 91.1405L103.622 90.9029H104.008L104.117 91.0386L104.158 91.1473V95.3761L104.137 95.4575L104.042 95.6272H103.602L103.466 93.7742C103.446 93.4687 103.358 93.1768 103.229 92.9121C103.093 92.6406 102.91 92.403 102.693 92.213L102.673 92.1926C101.818 91.4934 100.747 91.1608 99.7232 91.2016C98.7061 91.2423 97.7433 91.6428 97.1127 92.403L97.0992 92.4234C96.4686 93.1904 96.2923 93.9167 96.5906 94.5955C96.8958 95.3014 97.7026 95.9802 99.0384 96.6386C99.3977 96.8151 99.8995 97.0527 100.455 97.3106L102.151 98.1116C103.669 98.8243 104.761 99.6932 105.358 100.759C105.961 101.831 106.063 103.101 105.609 104.594C105.256 105.775 104.524 106.671 103.595 107.289C102.571 107.974 101.296 108.314 100.028 108.321C98.9977 108.314 97.94 108.015 97.0382 107.492C96.1567 106.983 95.4176 106.271 94.9973 105.415C94.7871 104.974 94.6582 104.553 94.5972 104.18C94.5294 103.752 94.5565 103.379 94.6447 103.107C94.7667 102.727 94.9566 102.463 95.1871 102.286C95.3702 102.144 95.5736 102.062 95.777 102.035C95.9804 102.008 96.1771 102.021 96.3601 102.083C96.5771 102.15 96.7601 102.279 96.889 102.442C96.9975 102.578 97.0653 102.748 97.0992 102.924C97.1263 103.101 97.1195 103.291 97.0517 103.467C96.9907 103.644 96.8754 103.813 96.6991 103.942C96.5296 104.071 96.3059 104.173 96.0143 104.221C95.8923 104.241 95.7973 104.275 95.716 104.316C95.5939 104.377 95.5193 104.458 95.4786 104.553C95.438 104.648 95.4312 104.75 95.4515 104.852C95.4651 104.927 95.4854 104.994 95.5193 105.062C95.9126 105.829 96.5703 106.474 97.3568 106.929C98.1569 107.391 99.0926 107.655 100.042 107.662C101.201 107.655 102.3 107.323 103.12 106.712C103.873 106.155 104.395 105.361 104.51 104.37C104.551 104.01 104.47 103.671 104.239 103.365C103.995 103.046 103.595 102.748 103.012 102.483C102.368 102.171 101.235 101.621 100.103 101.058C98.896 100.46 97.6891 99.8561 97.0382 99.5303C96.6788 99.3538 96.3533 99.123 96.0618 98.8515C95.3905 98.227 94.9227 97.3785 94.7532 96.4282C94.5837 95.4847 94.7057 94.4326 95.2142 93.4076C95.4651 92.8985 95.8109 92.3962 96.2584 91.9143V91.9075C97.106 91.0251 98.3061 90.5771 99.5469 90.5431Z" fill="url(#paint27_linear_77_95)"/>
<path fill-rule="evenodd" clip-rule="evenodd" d="M36.7872 120.552C36.7398 121.034 36.7262 121.489 36.7601 121.917L36.6855 122.005C35.56 121.964 34.6446 121.944 33.9259 121.944C33.1665 121.944 32.285 121.971 31.2544 122.005L31.1663 121.93V121.374L32.4274 120.084C33.3767 119.127 33.9801 118.394 34.2717 117.898C34.4344 117.606 34.5633 117.342 34.6243 117.104C34.6989 116.866 34.7395 116.609 34.7395 116.337C34.7395 115.353 34.2853 114.857 33.3902 114.857C32.8885 114.857 32.4817 115.061 32.1901 115.441C32.1426 115.618 32.0613 115.923 31.9528 116.364L31.8918 116.425H31.5392L31.4782 116.364L31.7087 114.307C32.224 113.792 32.9427 113.527 33.8649 113.527C34.6989 113.527 35.3294 113.751 35.7837 114.185C36.1973 114.579 36.4007 115.095 36.4007 115.753C36.4007 116.018 36.3736 116.269 36.3126 116.5C36.1838 116.955 35.9193 117.423 35.5329 117.891C35.2074 118.285 34.6989 118.801 34.0412 119.432C33.7903 119.67 33.4241 120.023 32.9292 120.491L32.9427 120.566H34.0412C34.3531 120.566 34.6446 120.566 34.9362 120.552L35.9939 120.525C36.2719 120.512 36.4957 120.498 36.6991 120.484L36.7872 120.552Z" fill="#FDFDFD"/>
<path fill-rule="evenodd" clip-rule="evenodd" d="M54.7555 117.471C54.7555 119.086 54.5521 120.233 54.1521 120.932C53.6571 121.788 52.918 122.222 51.9213 122.222C50.9653 122.222 50.2533 121.842 49.8126 121.095C49.4464 120.478 49.2566 119.453 49.2566 118.014C49.2566 116.887 49.3719 116.004 49.5956 115.36C49.799 114.776 50.1109 114.314 50.5652 113.982C50.9924 113.663 51.5009 113.513 52.0908 113.513C53.0129 113.513 53.6774 113.792 54.0842 114.348C54.5385 114.973 54.7555 116.004 54.7555 117.471ZM53.2367 118.482C53.2367 116.88 53.1214 115.726 52.8841 115.034C52.7078 114.464 52.3892 114.185 51.9349 114.185C51.5213 114.185 51.2161 114.403 51.0398 114.83C50.85 115.285 50.7483 116.052 50.7483 117.152C50.7483 118.516 50.8364 119.561 50.9992 120.294C51.0738 120.634 51.1619 120.885 51.25 121.041C51.4399 121.394 51.7179 121.57 52.0705 121.57C52.6604 121.57 53.0197 121.102 53.1282 120.193C53.2028 119.717 53.2367 119.154 53.2367 118.482Z" fill="#FDFDFD"/>
<path fill-rule="evenodd" clip-rule="evenodd" d="M72.8251 120.552C72.7776 121.034 72.764 121.489 72.798 121.917L72.7233 122.005C71.5978 121.964 70.6824 121.944 69.9637 121.944C69.2043 121.944 68.3229 121.971 67.2923 122.005L67.2041 121.93V121.374L68.4653 120.084C69.4145 119.127 70.0179 118.394 70.3095 117.898C70.4722 117.606 70.6011 117.342 70.6621 117.104C70.7367 116.866 70.7774 116.609 70.7774 116.337C70.7774 115.353 70.3231 114.857 69.4281 114.857C68.9263 114.857 68.5195 115.061 68.2279 115.441C68.1804 115.618 68.0991 115.923 67.9906 116.364L67.9296 116.425H67.577L67.516 116.364L67.7465 114.307C68.2618 113.792 68.9806 113.527 69.9027 113.527C70.7367 113.527 71.3673 113.751 71.8216 114.185C72.2352 114.579 72.4386 115.095 72.4386 115.753C72.4386 116.018 72.4114 116.269 72.3504 116.5C72.2216 116.955 71.9572 117.423 71.5707 117.891C71.2452 118.285 70.7367 118.801 70.079 119.432C69.8281 119.67 69.462 120.023 68.967 120.491L68.9806 120.566H70.079C70.3909 120.566 70.6825 120.566 70.974 120.552L72.0318 120.525C72.3098 120.512 72.5335 120.498 72.7369 120.484L72.8251 120.552Z" fill="#FDFDFD"/>
<path fill-rule="evenodd" clip-rule="evenodd" d="M90.6645 119.073C90.6645 119.955 90.2983 120.688 89.5661 121.292C88.8338 121.896 87.9794 122.215 87.003 122.215C86.4742 122.215 85.9792 122.1 85.491 121.876C85.43 121.156 85.3283 120.552 85.1995 120.057L85.2401 119.969L85.5453 119.88L85.6198 119.907C86.0267 120.953 86.6776 121.475 87.5726 121.475C88.0405 121.475 88.4066 121.326 88.6981 121.021C88.9761 120.715 89.1118 120.301 89.1118 119.785C89.1118 119.256 88.9626 118.849 88.6439 118.57C88.3524 118.292 87.9659 118.163 87.4709 118.163C87.2471 118.163 87.0031 118.204 86.7386 118.265L86.664 118.19C86.7522 117.898 86.8403 117.586 86.9014 117.253H87.4031C87.7692 117.253 88.0812 117.118 88.3524 116.86C88.6168 116.595 88.7592 116.276 88.7592 115.923C88.7592 115.584 88.6303 115.305 88.4066 115.088C88.1693 114.871 87.8777 114.769 87.5251 114.769C86.9556 114.769 86.5759 114.905 86.3792 115.197C86.2911 115.326 86.2029 115.522 86.1148 115.78L86.0402 115.984L85.9657 116.045L85.6537 116.018L85.5927 115.93L85.8097 114.932C85.8707 114.64 85.9114 114.362 85.9453 114.097C86.4742 113.69 87.1454 113.493 87.9523 113.493C88.6439 113.493 89.1863 113.656 89.5932 113.995C89.9864 114.321 90.1763 114.755 90.1763 115.285C90.1763 116.052 89.722 116.676 88.8134 117.138C89.2677 117.138 89.6813 117.301 90.061 117.62C90.4475 117.98 90.6645 118.455 90.6645 119.073Z" fill="#FDFDFD"/>
<path d="M1 117.778L25.4977 117.864" stroke="#FDFDFD" stroke-width="0.74074" stroke-miterlimit="2.6131" stroke-linecap="round" stroke-linejoin="round"/>
<path d="M96.5022 117.864L118.407 117.778" stroke="white" stroke-width="0.74074" stroke-miterlimit="2.6131" stroke-linecap="round" stroke-linejoin="round"/>
<defs>
<linearGradient id="paint0_linear_77_95" x1="47.7019" y1="47.9226" x2="47.7019" y2="29.4535" gradientUnits="userSpaceOnUse">
<stop stop-color="#FEF5F9"/>
<stop offset="1" stop-color="#B2BCBE"/>
</linearGradient>
<linearGradient id="paint1_linear_77_95" x1="27.8617" y1="51.1053" x2="27.8617" y2="35.4868" gradientUnits="userSpaceOnUse">
<stop stop-color="#FEF5F9"/>
<stop offset="1" stop-color="#B2BCBE"/>
</linearGradient>
<linearGradient id="paint2_linear_77_95" x1="86.8934" y1="51.1054" x2="86.8934" y2="43.9371" gradientUnits="userSpaceOnUse">
<stop stop-color="#FEF5F9"/>
<stop offset="1" stop-color="#B2BCBE"/>
</linearGradient>
<linearGradient id="paint3_linear_77_95" x1="63.6187" y1="22.5691" x2="63.6187" y2="10.2" gradientUnits="userSpaceOnUse">
<stop stop-color="#FEF5F9"/>
<stop offset="1" stop-color="#B2BCBE"/>
</linearGradient>
<linearGradient id="paint4_linear_77_95" x1="89.004" y1="29.7086" x2="89.004" y2="17.2551" gradientUnits="userSpaceOnUse">
<stop stop-color="#FEF5F9"/>
<stop offset="1" stop-color="#B2BCBE"/>
</linearGradient>
<linearGradient id="paint5_linear_77_95" x1="66.5164" y1="38.7451" x2="66.5164" y2="23.6559" gradientUnits="userSpaceOnUse">
<stop stop-color="#FEF5F9"/>
<stop offset="1" stop-color="#B2BCBE"/>
</linearGradient>
<linearGradient id="paint6_linear_77_95" x1="76.2856" y1="42.4912" x2="76.2856" y2="26.9126" gradientUnits="userSpaceOnUse">
<stop stop-color="#FEF5F9"/>
<stop offset="1" stop-color="#B2BCBE"/>
</linearGradient>
<linearGradient id="paint7_linear_77_95" x1="31.8421" y1="33.9187" x2="31.8421" y2="18.944" gradientUnits="userSpaceOnUse">
<stop stop-color="#FEF5F9"/>
<stop offset="1" stop-color="#B2BCBE"/>
</linearGradient>
<linearGradient id="paint8_linear_77_95" x1="50.2346" y1="28.1216" x2="50.2346" y2="16.0465" gradientUnits="userSpaceOnUse">
<stop stop-color="#FEF5F9"/>
<stop offset="1" stop-color="#B2BCBE"/>
</linearGradient>
<linearGradient id="paint9_linear_77_95" x1="94.9321" y1="44.8625" x2="94.9321" y2="30.6617" gradientUnits="userSpaceOnUse">
<stop stop-color="#FEF5F9"/>
<stop offset="1" stop-color="#B2BCBE"/>
</linearGradient>
<linearGradient id="paint10_linear_77_95" x1="104.864" y1="51.1055" x2="104.864" y2="44.5419" gradientUnits="userSpaceOnUse">
<stop stop-color="#FEF5F9"/>
<stop offset="1" stop-color="#B2BCBE"/>
</linearGradient>
<linearGradient id="paint11_linear_77_95" x1="38.1827" y1="20.7945" x2="53.5242" y2="13.6261" gradientUnits="userSpaceOnUse">
<stop stop-color="#322F52"/>
<stop offset="0.53" stop-color="#BBBCBE"/>
<stop offset="1" stop-color="#4E5068"/>
</linearGradient>
<linearGradient id="paint12_linear_77_95" x1="96.8919" y1="41.3078" x2="103.054" y2="33.8698" gradientUnits="userSpaceOnUse">
<stop stop-color="#322F52"/>
<stop offset="0.53" stop-color="#BBBCBE"/>
<stop offset="1" stop-color="#4E5068"/>
</linearGradient>
<linearGradient id="paint13_linear_77_95" x1="72.1246" y1="25.706" x2="72.1246" y2="16.2086" gradientUnits="userSpaceOnUse">
<stop stop-color="#FEF5F9"/>
<stop offset="1" stop-color="#B2BCBE"/>
</linearGradient>
<linearGradient id="paint14_linear_77_95" x1="78.155" y1="28.1216" x2="78.155" y2="17.0172" gradientUnits="userSpaceOnUse">
<stop stop-color="#FEF5F9"/>
<stop offset="1" stop-color="#B2BCBE"/>
</linearGradient>
<linearGradient id="paint15_linear_77_95" x1="22.9179" y1="27.2466" x2="36.6457" y2="15.5167" gradientUnits="userSpaceOnUse">
<stop stop-color="#322F52"/>
<stop offset="0.53" stop-color="#BBBCBE"/>
<stop offset="1" stop-color="#4E5068"/>
</linearGradient>
<linearGradient id="paint16_linear_77_95" x1="44.566" y1="17.8589" x2="44.566" y2="10.3717" gradientUnits="userSpaceOnUse">
<stop stop-color="#FEF5F9"/>
<stop offset="1" stop-color="#B2BCBE"/>
</linearGradient>
<linearGradient id="paint17_linear_77_95" x1="18.3342" y1="42.1254" x2="18.3342" y2="24.8633" gradientUnits="userSpaceOnUse">
<stop stop-color="#FEF5F9"/>
<stop offset="1" stop-color="#B2BCBE"/>
</linearGradient>
<linearGradient id="paint18_linear_77_95" x1="102.671" y1="43.0965" x2="102.671" y2="27.6403" gradientUnits="userSpaceOnUse">
<stop stop-color="#FEF5F9"/>
<stop offset="1" stop-color="#B2BCBE"/>
</linearGradient>
<linearGradient id="paint19_linear_77_95" x1="108.449" y1="51.1058" x2="108.449" y2="41.4058" gradientUnits="userSpaceOnUse">
<stop stop-color="#FEF5F9"/>
<stop offset="1" stop-color="#B2BCBE"/>
</linearGradient>
<linearGradient id="paint20_linear_77_95" x1="78.994" y1="16.3931" x2="78.994" y2="0.126593" gradientUnits="userSpaceOnUse">
<stop stop-color="#FEF5F9"/>
<stop offset="1" stop-color="#B2BCBE"/>
</linearGradient>
<linearGradient id="paint21_linear_77_95" x1="11.2174" y1="47.5489" x2="11.2174" y2="39.9869" gradientUnits="userSpaceOnUse">
<stop stop-color="#FEF5F9"/>
<stop offset="1" stop-color="#B2BCBE"/>
</linearGradient>
<linearGradient id="paint22_linear_77_95" x1="18.3341" y1="21.5989" x2="18.3341" y2="17.6144" gradientUnits="userSpaceOnUse">
<stop stop-color="#FEF5F9"/>
<stop offset="1" stop-color="#B2BCBE"/>
</linearGradient>
<linearGradient id="paint23_linear_77_95" x1="103.393" y1="23.7779" x2="103.393" y2="16.5219" gradientUnits="userSpaceOnUse">
<stop stop-color="#FEF5F9"/>
<stop offset="1" stop-color="#B2BCBE"/>
</linearGradient>
<linearGradient id="paint24_linear_77_95" x1="52.2062" y1="50.4149" x2="68.557" y2="38.315" gradientUnits="userSpaceOnUse">
<stop stop-color="#322F52"/>
<stop offset="0.53" stop-color="#BBBCBE"/>
<stop offset="1" stop-color="#4E5068"/>
</linearGradient>
<linearGradient id="paint25_linear_77_95" x1="60.2868" y1="66.1037" x2="60.009" y2="57.2374" gradientUnits="userSpaceOnUse">
<stop stop-color="white"/>
<stop offset="1" stop-color="#B2BCBE"/>
</linearGradient>
<linearGradient id="paint26_linear_77_95" x1="60.4099" y1="89.0553" x2="60.0709" y2="72.9949" gradientUnits="userSpaceOnUse">
<stop stop-color="white"/>
<stop offset="1" stop-color="#B2BCBE"/>
</linearGradient>
<linearGradient id="paint27_linear_77_95" x1="60.0425" y1="109.169" x2="59.7683" y2="94.3706" gradientUnits="userSpaceOnUse">
<stop stop-color="white"/>
<stop offset="1" stop-color="#B2BCBE"/>
</linearGradient>
</defs>
</svg>
